<svg xmlns="http://www.w3.org/2000/svg" xmlns:xlink="http://www.w3.org/1999/xlink" width="81.999" height="82" viewBox="0 0 81.999 82">
  <defs>
    <filter id="Union_1" x="0" y="0" width="81.999" height="82" filterUnits="userSpaceOnUse">
      <feOffset dy="3" input="SourceAlpha"/>
      <feGaussianBlur stdDeviation="3" result="blur"/>
      <feFlood flood-opacity="0.161"/>
      <feComposite operator="in" in2="blur"/>
      <feComposite in="SourceGraphic"/>
    </filter>
  </defs>
  <g transform="matrix(1, 0, 0, 1, 0, 0)" filter="url(#Union_1)">
    <g id="Union_1-2" data-name="Union 1" transform="translate(73 70) rotate(180)" fill="#25d467">
      <path d="M 31.19248008728027 62 C 27.25697898864746 62 23.43978881835938 61.20952987670898 19.84696006774902 59.65053939819336 C 16.37226867675781 58.1428108215332 13.25041961669922 55.98308181762695 10.56814956665039 53.23131942749023 C 7.882409572601318 50.47600936889648 5.773579597473145 47.26697158813477 4.300239562988281 43.69334030151367 C 2.773909568786621 39.99118041992188 1.999999403953552 36.05685043334961 1.999999403953552 31.9996395111084 C 1.999999403953552 27.9426097869873 2.773909568786621 24.00843048095703 4.300239562988281 20.3063793182373 C 5.773579597473145 16.73283004760742 7.882399559020996 13.52385997772217 10.56813907623291 10.76860046386719 C 13.25041961669922 8.016880035400391 16.37226867675781 5.857160091400146 19.84696006774902 4.34945011138916 C 23.43980026245117 2.790469884872437 27.25697898864746 2 31.19248008728027 2 C 36.59029006958008 2 41.86214065551758 3.525350093841553 46.43809127807617 6.411149978637695 L 47.14030075073242 6.853990077972412 L 47.94968795776367 6.669390201568604 L 61.13440322875977 3.662243366241455 L 57.21450042724609 17.20759963989258 L 57.00101089477539 17.94532012939453 L 57.33615112304688 18.63632965087891 C 59.35919952392578 22.80761909484863 60.38496780395508 27.30368041992188 60.38496780395508 31.9996395111084 C 60.38496780395508 36.05681991577148 59.61103057861328 39.99113845825195 58.08462905883789 43.69332122802734 C 56.61124801635742 47.26692962646484 54.50236129760742 50.47597885131836 51.81655883789062 53.2313117980957 C 49.13425064086914 55.98305892944336 46.01237869262695 58.1428108215332 42.53768920898438 59.65053939819336 C 38.94490051269531 61.20952987670898 35.1278190612793 62 31.19248008728027 62 Z" stroke="none"/>
      <path d="M 31.19248199462891 4 C 27.53249359130859 4 23.9831657409668 4.734859466552734 20.64307022094727 6.184177398681641 C 17.40805816650391 7.587882995605469 14.50020980834961 9.599998474121094 12.00030517578125 12.16462326049805 C 9.49346923828125 14.73635482788086 7.524894714355469 17.73211669921875 6.149246215820312 21.06870651245117 C 4.723106384277344 24.52775192260742 4 28.20544815063477 4 31.9996337890625 C 4 35.79401397705078 4.723117828369141 39.47185897827148 6.149257659912109 42.93102264404297 C 7.524906158447266 46.26769256591797 9.493492126464844 49.26353073120117 12.00032806396484 51.83530426025391 C 14.50022125244141 54.39996337890625 17.40805816650391 56.41209411621094 20.64308166503906 57.81582260131836 C 23.983154296875 59.26514053344727 27.53249359130859 60 31.19248199462891 60 C 34.852294921875 60 38.40152740478516 59.26514053344727 41.74156188964844 57.81582260131836 C 44.97657775878906 56.41209411621094 47.88444519042969 54.39994049072266 50.3843879699707 51.83528137207031 C 52.89129257202148 49.26348114013672 54.85992813110352 46.26764678955078 56.23562240600586 42.93097686767578 C 57.66182327270508 39.4718017578125 58.38496398925781 35.79396438598633 58.38496398925781 31.9996337890625 C 58.38496398925781 27.60850524902344 57.4266471862793 23.40608215332031 55.53662109375 19.50910568237305 L 54.86635208129883 18.12708282470703 L 58.26961135864258 6.366992950439453 L 46.775634765625 8.988517761230469 L 45.37123489379883 8.102836608886719 C 41.11512756347656 5.418739318847656 36.21218872070312 4 31.19248199462891 4 M 31.19248199462891 0 C 37.17197418212891 0 42.75889587402344 1.726375579833984 47.50495147705078 4.719459533691406 L 63.99919891357422 0.9574813842773438 L 59.13566970825195 17.76357650756836 C 61.21510696411133 22.05110549926758 62.38496398925781 26.8857421875 62.38496398925781 31.9996337890625 C 62.38496398925781 49.67302322387695 48.41915130615234 64 31.19248199462891 64 C 13.96508026123047 64 0 49.67302322387695 0 31.9996337890625 C 0 14.32697677612305 13.96508026123047 0 31.19248199462891 0 Z" stroke="none" fill="#fff"/>
    </g>
  </g>
</svg>
