<svg xmlns="http://www.w3.org/2000/svg" width="77.051" height="68"><g transform="translate(-1355.949 -687)"><circle cx="34" cy="34" r="34" transform="translate(1365 687)" fill="#fdefef"/><g fill="#f95959"><path d="M1407.949 707.622v-7.153a4.3 4.3 0 00-4.254-4.375h-43.492a4.3 4.3 0 00-4.254 4.375v35.063a4.3 4.3 0 004.254 4.375h43.492a4.3 4.3 0 004.254-4.375v-27.91zm-47.746-9.979h43.492a2.754 2.754 0 012.705 2.826v6.357h-48.902v-6.357a2.753 2.753 0 012.705-2.826zm43.492 40.715h-43.492a2.753 2.753 0 01-2.705-2.826v-27.157h48.9v27.157a2.754 2.754 0 01-2.703 2.826zm0 0"/><path d="M1369.481 705.502a3.21 3.21 0 10-3.094-3.208 3.156 3.156 0 003.094 3.208zm0-4.867a1.663 1.663 0 11-1.545 1.659 1.607 1.607 0 011.545-1.659zm7.539 4.867a3.21 3.21 0 10-3.094-3.208 3.156 3.156 0 003.094 3.208zm0-4.867a1.663 1.663 0 11-1.545 1.659 1.607 1.607 0 011.545-1.659zm-15.079 4.867a3.21 3.21 0 10-3.094-3.208 3.156 3.156 0 003.094 3.208zm0-4.867a1.663 1.663 0 11-1.545 1.659 1.607 1.607 0 011.545-1.659zm22.7 16.259h-5.569v-4.661a.791.791 0 00-.807-.76h-10.017a.778.778 0 00-.793.76v7.427h-2.728a.815.815 0 00-.812.784v2.53h-1.252a.724.724 0 00-.74.749v9.776a.734.734 0 00.74.76h21.978a.732.732 0 00.738-.76v-15.8a.771.771 0 00-.738-.805zm-7.114-3.873v19.694h-8.523v-12.164c0-.035.008-.071.008-.108s-.008-.072-.008-.108v-7.314zm-14.055 11.507h1.255a.766.766 0 00.737-.8v-2.519h1.991v11.506h-3.983zm20.355 8.187h-4.755v-14.272h4.755zm0 0"/><path d="M1380.963 726.298h.844a.774.774 0 000-1.549h-.844a.774.774 0 100 1.549zm0 2.434h.844a.774.774 0 000-1.549h-.844a.774.774 0 100 1.549zm.843.775h-.844a.774.774 0 100 1.549h.844a.774.774 0 100-1.549zm-6.606-6.85a.775.775 0 00.774-.774v-1.515a.774.774 0 00-1.549 0v1.514a.775.775 0 00.775.775zm-3.983 0a.775.775 0 00.774-.774v-1.515a.774.774 0 00-1.549 0v1.514a.775.775 0 00.775.775zm9.746-1.005h.844a.774.774 0 000-1.549h-.844a.774.774 0 100 1.549zm0 2.323h.844a.774.774 0 000-1.549h-.844a.774.774 0 100 1.549zm-5.763-5.321a.775.775 0 00.774-.774v-1.512a.774.774 0 00-1.548 0v1.514a.775.775 0 00.774.772zm-3.983 0a.775.775 0 00.774-.774v-1.512a.774.774 0 00-1.548 0v1.514a.775.775 0 00.774.772zm3.983 8.006a.774.774 0 00.774-.774v-1.514a.774.774 0 10-1.549 0v1.514a.774.774 0 00.775.774zm-3.983 0a.774.774 0 00.774-.774v-1.514a.774.774 0 10-1.549 0v1.514a.774.774 0 00.775.774zm3.983 4.003a.774.774 0 00.774-.774v-1.514a.774.774 0 10-1.549 0v1.514a.774.774 0 00.775.774zm-3.983 0a.774.774 0 00.774-.774v-1.514a.774.774 0 10-1.549 0v1.514a.774.774 0 00.775.774zm17.923-9.343h5.864a.774.774 0 100-1.549h-5.864a.774.774 0 100 1.549zm12.17 2.655h-11.949a.774.774 0 000 1.549h11.949a.774.774 0 000-1.549zm0 4.315h-11.949a.774.774 0 000 1.549h11.949a.774.774 0 000-1.549zm0 4.204h-11.949a.774.774 0 000 1.549h11.949a.774.774 0 100-1.549zm0 0"/></g></g></svg>