<svg xmlns="http://www.w3.org/2000/svg" width="77.052" height="68"><g transform="translate(-1355.948 -687)"><circle cx="34" cy="34" r="34" transform="translate(1365 687)" fill="#fdefef"/><g fill="#f95959"><path d="M1367.896 697.356a.773.773 0 10-.323.963.779.779 0 00.323-.963zm5.257 0a.773.773 0 10-.318.96.779.779 0 00.318-.96zm-2.629 0a.773.773 0 10-.291.943.78.78 0 00.291-.943zm0 0"/><path d="M1404.451 693.683H1366.3a3.5 3.5 0 00-3.5 3.5v13.558a.773.773 0 001.546 0v-9.534h22.995v10.058a.773.773 0 001.247.611l9.764-7.566a.773.773 0 00.136-1.087 13.278 13.278 0 00-1.95-2.015h9.865v30a1.953 1.953 0 01-1.951 1.951h-22.367v-3.406a13.152 13.152 0 0016.2-15.2.773.773 0 10-1.519.29 11.7 11.7 0 01.206 2.19 11.575 11.575 0 01-4.195 8.919l-6.338-8.769 8.544-6.644a11.554 11.554 0 011.126 2.1.773.773 0 101.431-.587 13.145 13.145 0 00-1.79-3.086.772.772 0 00-1.084-.135l-8.518 6.617V704.66a.773.773 0 00-.773-.773 13.141 13.141 0 00-8.4 23.246v6.027h-1.95v-4.846a.773.773 0 00-.773-.773h-3.564a.773.773 0 00-.773.773v4.846h-2v-19.842a.773.773 0 00-.773-.773h-3.566a.773.773 0 00-.773.773v28.355a.773.773 0 00.773.773h3.564a.773.773 0 00.773-.773v-6.967h2v6.967a.773.773 0 00.773.773h3.564a.773.773 0 00.773-.773v-6.967h1.95v6.967a.773.773 0 00.773.773h3.564a.773.773 0 00.773-.773v-6.967h22.367a3.5 3.5 0 003.5-3.5v-34.023a3.5 3.5 0 00-3.499-3.5zm-40.1 47.217v-26.809h2.018V740.9zm7.112 0v-11.817h2.018V740.9zm2.32-23.872a11.61 11.61 0 0110.819-11.569v11.569a.77.77 0 00.148.452l6.775 9.373a11.595 11.595 0 01-9.439 1.294v-6.017a.773.773 0 00-.773-.773h-3.565a.773.773 0 00-.773.773v2.891a11.52 11.52 0 01-3.194-7.993zm4.735 23.872v-18h2.018v18zm10.369-31.212v-9.95a11.524 11.524 0 017.884 3.845zm5.341-10.027a13.141 13.141 0 00-6.11-1.494.773.773 0 00-.773.773v.721h-22.997v-2.478a1.953 1.953 0 011.951-1.951h38.152a1.953 1.953 0 011.951 1.951v2.478zm-33.943 18.14h-3.564a.773.773 0 00-.773.773v23.1a.773.773 0 00.773.773h3.564a.773.773 0 00.773-.773v-6.247a.773.773 0 10-1.546 0v5.474h-2.018v-21.554h2.018v13.5a.773.773 0 001.546 0v-14.273a.773.773 0 00-.773-.773zm0 0"/><path d="M1404.502 729.422h-8.194a.773.773 0 000 1.546h8.194a.773.773 0 000-1.546zm0-3.272h-5.72a.773.773 0 000 1.546h5.72a.773.773 0 000-1.546zm0 0"/></g></g></svg>