<svg xmlns="http://www.w3.org/2000/svg" width="77.052" height="68"><g transform="translate(-1355.948 -687)"><circle cx="34" cy="34" r="34" transform="translate(1365 687)" fill="#fdefef"/><path d="M1382 724.356a7.848 7.848 0 107.848 7.848 7.856 7.856 0 00-7.848-7.848zm0 14.169a6.321 6.321 0 116.321-6.321 6.328 6.328 0 01-6.321 6.321zm24.271-23.813h-13.983v-2.1h4.828a2.292 2.292 0 002.29-2.29v-9.434a2.292 2.292 0 00-2.29-2.29h-14.234a2.292 2.292 0 00-2.29 2.29v3.29l-3.262-.994c-.843-.221-1.034-1.144-.954-1.9a5.446 5.446 0 001.85-4.091v-5.729a3.52 3.52 0 00-3.515-3.516h-3.886a3.52 3.52 0 00-3.516 3.516v5.728a5.448 5.448 0 001.939 4.168 1.572 1.572 0 01-.953 1.84l-4.313 1.316a4.956 4.956 0 00-3.534 4.767v3.139a.763.763 0 001.526 0v-3.139a3.438 3.438 0 012.449-3.307l1.653-.5 3.16 2.7a1.482 1.482 0 002.064-.143l.7-.792v7.471h-4.928v-1.322a.763.763 0 10-1.526 0v1.322h-7.817a1.783 1.783 0 00-1.781 1.781v2.544a1.783 1.783 0 001.781 1.781h2.035v18.47a.763.763 0 001.526 0v-18.47h44.98a1.783 1.783 0 001.778-1.781v-2.544a1.783 1.783 0 00-1.781-1.781zm-24.152-9.5v-4.324a.764.764 0 01.763-.763h14.234a.764.764 0 01.763.763v9.432a.764.764 0 01-.763.763h-4.828v-1.714a2.29 2.29 0 10-4.579 0v1.714h-4.827a.764.764 0 01-.763-.763zm8.643 6.636v2.862h-1.527v-5.341a.763.763 0 011.526 0v2.473l.001.006zm-3.053.759v2.1h-2.478v-2.1zm-7.117-6.835v4.545a2.292 2.292 0 002.29 2.29h.822v2.1h-3.714v-1.317a.763.763 0 00-1.526 0v1.322h-4.933v-7.506l.767.846a1.469 1.469 0 002.05.132l3.2-2.727zm-3.707-1.124l.93.284-2.419 2.062-1.433-1.58 2.05-1.2a2.867 2.867 0 00.872.434zm-8.049-13.184a1.992 1.992 0 011.989-1.989h3.885a1.992 1.992 0 011.989 1.989v2.074a5.723 5.723 0 00-4.887-.608l-2.977.981v-2.447zm0 5.729v-1.675l3.454-1.138a4.21 4.21 0 013.692.509l.718.483v1.82a3.932 3.932 0 11-7.864 0zm1.358 9.791l-2.384-2.036.93-.284a2.872 2.872 0 00.871-.439l1.977 1.187zm.361-3.975a2.877 2.877 0 00.2-.745 5.446 5.446 0 004.12-.034 2.873 2.873 0 00.2.761l-2.3 1.349zm35.97 16.029a.255.255 0 01-.254.254h-48.542a.255.255 0 01-.254-.254v-2.545a.255.255 0 01.254-.254h48.542a.255.255 0 01.254.254zm-3.053 3.69a.763.763 0 00-.763.763v15.8a.763.763 0 101.526 0v-15.8a.763.763 0 00-.763-.763z" fill="#f95959"/></g></svg>