<svg xmlns="http://www.w3.org/2000/svg" width="77.052" height="68"><g transform="translate(-1355.948 -687)"><circle cx="34" cy="34" r="34" transform="translate(1365 687)" fill="#fdefef"/><g fill="#f95959"><path d="M1392.208 727.567l-1.864-1.864a9.541 9.541 0 00.759-1.74h2.737a.762.762 0 00.762-.762v-4.4a.762.762 0 00-.762-.762h-2.737a9.542 9.542 0 00-.759-1.74l1.864-1.864a.761.761 0 000-1.077l-2.863-2.863a.762.762 0 00-1.077 0l-1.936 1.936a9.574 9.574 0 00-1.429-.593v-2.737a.762.762 0 00-.762-.762h-4.053a.762.762 0 00-.762.762v2.636a9.532 9.532 0 00-1.766.694l-1.936-1.936a.762.762 0 00-1.077 0l-2.859 2.86a.761.761 0 000 1.077l1.864 1.864a9.542 9.542 0 00-.759 1.74h-2.737a.762.762 0 00-.762.762v4.4a.762.762 0 00.762.762h2.737a9.539 9.539 0 00.759 1.74l-1.864 1.864a.762.762 0 000 1.077l2.863 2.863a.762.762 0 001.077 0l1.936-1.936a9.537 9.537 0 001.766.694v2.636a.762.762 0 00.762.762h4.048a.762.762 0 00.762-.762v-2.737a9.575 9.575 0 001.429-.593l1.936 1.936a.762.762 0 001.077 0l2.863-2.863a.762.762 0 00.001-1.074zm-3.4 2.324l-1.8-1.8a.761.761 0 00-.928-.116 8.044 8.044 0 01-2.123.881.762.762 0 00-.574.738v2.548h-2.525v-2.47a.762.762 0 00-.6-.745 8.027 8.027 0 01-2.431-.952.761.761 0 00-.928.116l-1.8 1.8-1.785-1.785 1.747-1.747a.762.762 0 00.1-.953 8.036 8.036 0 01-1.057-2.391.762.762 0 00-.738-.574h-2.548v-2.88h2.549a.762.762 0 00.738-.574 8.044 8.044 0 011.047-2.392.762.762 0 00-.1-.953l-1.747-1.747 1.785-1.785 1.8 1.8a.762.762 0 00.928.116 8.025 8.025 0 012.431-.952.762.762 0 00.6-.745v-2.47h2.525v2.548a.762.762 0 00.574.738 8.044 8.044 0 012.123.881.762.762 0 00.928-.116l1.8-1.8 1.785 1.785-1.747 1.747a.762.762 0 00-.1.953 8.037 8.037 0 011.047 2.392.762.762 0 00.738.574h2.548v2.88h-2.549a.762.762 0 00-.738.574 8.043 8.043 0 01-1.047 2.392.762.762 0 00.1.953l1.747 1.747z"/><path d="M1381.948 717.165a3.87 3.87 0 00-.583.044.762.762 0 10.23 1.506 2.343 2.343 0 01.353-.027 2.313 2.313 0 11-2.289 1.961.762.762 0 00-1.506-.232 3.84 3.84 0 103.795-3.253zm19.083-17.548a2.3 2.3 0 102.3 2.3 2.3 2.3 0 00-2.3-2.3zm0 3.078a.777.777 0 11.777-.777.778.778 0 01-.777.777z"/><path d="M1407.186 699.617h-1.295a5.355 5.355 0 00-2.558-2.56v-1.295a.762.762 0 00-.764-.762h-3.078a.762.762 0 00-.762.762v1.294a5.355 5.355 0 00-2.56 2.56h-1.295a.762.762 0 00-.762.762v3.078a.762.762 0 00.762.762h1.295a5.355 5.355 0 002.56 2.56v1.295a.762.762 0 00.762.762h3.078a.762.762 0 00.762-.762v-1.295a5.355 5.355 0 002.56-2.56h1.295a.762.762 0 00.762-.762v-3.078a.762.762 0 00-.762-.761zm-.762 3.078h-1.042a.762.762 0 00-.718.507 3.9 3.9 0 01-2.35 2.35.762.762 0 00-.507.718v1.042h-1.554v-1.043a.762.762 0 00-.507-.718 3.9 3.9 0 01-2.35-2.35.762.762 0 00-.718-.507h-1.045v-1.554h1.042a.762.762 0 00.718-.507 3.9 3.9 0 012.35-2.35.762.762 0 00.507-.718v-1.042h1.554v1.042a.762.762 0 00.507.718 3.9 3.9 0 012.35 2.35.762.762 0 00.718.507h1.042zm-3.093 37.388a2.3 2.3 0 10-2.3 2.3 2.3 2.3 0 002.3-2.3zm-3.078 0a.777.777 0 11.777.777.778.778 0 01-.777-.777z"/><path d="M1407.186 737.785h-1.295a5.355 5.355 0 00-2.56-2.56v-1.295a.762.762 0 00-.762-.762h-3.078a.762.762 0 00-.762.762v1.355a.762.762 0 00.836 1.236q.089-.037.18-.069a.762.762 0 00.507-.718v-1.049h1.554v1.042a.762.762 0 00.507.718 3.9 3.9 0 012.35 2.35.762.762 0 00.718.507h1.042v1.554h-1.04a.762.762 0 00-.718.507 3.9 3.9 0 01-2.35 2.35.762.762 0 00-.507.718v1.042h-1.555v-1.042a.762.762 0 00-.507-.718 3.9 3.9 0 01-2.35-2.35.762.762 0 00-.718-.507h-1.045v-1.551h1.042a.762.762 0 00.718-.508q.034-.1.073-.189a.762.762 0 00-1.247-.827h-1.348a.762.762 0 00-.762.762v3.078a.762.762 0 00.762.762h1.295a5.355 5.355 0 002.56 2.56v1.295a.762.762 0 00.762.762h3.078a.762.762 0 00.762-.762v-1.295a5.354 5.354 0 002.56-2.56h1.295a.762.762 0 00.762-.762v-3.078a.762.762 0 00-.759-.758zm-42.02-35.867a2.3 2.3 0 10-2.3 2.3 2.3 2.3 0 002.3-2.3zm-3.078 0a.777.777 0 11.777.777.778.778 0 01-.777-.777z"/><path d="M1356.71 704.218h1.294a5.355 5.355 0 002.56 2.56v1.295a.762.762 0 00.762.762h3.078a.762.762 0 00.762-.762v-1.295a5.355 5.355 0 002.56-2.56h1.295a.762.762 0 00.762-.762v-3.078a.762.762 0 00-.762-.762h-1.295a5.355 5.355 0 00-2.56-2.56v-1.294a.762.762 0 00-.762-.762h-3.078a.762.762 0 00-.762.762v1.354a.762.762 0 00.836 1.236q.089-.037.18-.069a.762.762 0 00.507-.718v-1.042h1.556v1.042a.762.762 0 00.507.718 3.9 3.9 0 012.35 2.35.762.762 0 00.718.507h1.042v1.555h-1.043a.762.762 0 00-.718.507 3.9 3.9 0 01-2.35 2.35.762.762 0 00-.507.718v1.042h-1.554v-1.043a.762.762 0 00-.507-.718 3.9 3.9 0 01-2.35-2.351.762.762 0 00-.718-.507h-1.042v-1.553h1.042a.762.762 0 00.718-.507q.034-.1.073-.189a.762.762 0 00-1.246-.827h-1.348a.762.762 0 00-.762.761v3.078a.762.762 0 00.762.762zm12.311 33.567h-1.295a5.355 5.355 0 00-2.56-2.56v-1.295a.762.762 0 00-.762-.762h-3.078a.762.762 0 00-.762.762v1.295a5.355 5.355 0 00-2.56 2.56h-1.294a.762.762 0 00-.762.762v3.078a.762.762 0 00.762.76h1.295a5.355 5.355 0 002.56 2.56v1.295a.762.762 0 00.762.762h3.077a.762.762 0 00.762-.762v-1.295a5.355 5.355 0 002.56-2.56h1.295a.762.762 0 00.762-.762v-3.078a.762.762 0 00-.762-.76zm-.762 3.078h-1.042a.762.762 0 00-.718.507 3.9 3.9 0 01-2.35 2.35.762.762 0 00-.507.718v1.042h-1.554v-1.042a.762.762 0 00-.507-.718 3.9 3.9 0 01-2.35-2.35.762.762 0 00-.718-.507h-1.042v-1.558h1.042a.762.762 0 00.718-.507 3.9 3.9 0 012.35-2.35.762.762 0 00.507-.718v-1.045h1.555v1.042a.762.762 0 00.507.718 3.9 3.9 0 012.35 2.35.762.762 0 00.718.507h1.042z"/><path d="M1362.866 737.782a2.3 2.3 0 102.3 2.3 2.3 2.3 0 00-2.3-2.3zm0 3.078a.777.777 0 11.777-.777.778.778 0 01-.777.777zm5.668-34.352a.762.762 0 00-1.077 1.077l2.188 2.188h-.623a.762.762 0 100 1.523h2.462a.77.77 0 00.762-.762v-2.462a.762.762 0 00-1.523 0v.623zm23.121 4.103a.77.77 0 00.758.686h2.462a.762.762 0 100-1.523h-.623l2.188-2.188a.762.762 0 10-1.077-1.077l-2.188 2.188v-.623a.762.762 0 00-1.523 0v2.462a.733.733 0 00.003.075zm-19.414 20.57a.769.769 0 00-.758-.686h-2.462a.762.762 0 100 1.523h.623l-2.188 2.188a.762.762 0 001.077 1.077l2.188-2.188v.623a.762.762 0 101.523 0v-2.462a.508.508 0 00-.003-.075zm23.121 4.105a.762.762 0 101.077-1.077l-2.188-2.188h.623a.762.762 0 000-1.523h-2.459a.77.77 0 00-.762.762v2.462a.762.762 0 001.523 0v-.623z"/></g></g></svg>