<svg xmlns="http://www.w3.org/2000/svg" width="76.235" height="68"><g transform="translate(-1356.765 -687)"><circle cx="34" cy="34" r="34" transform="translate(1365 687)" fill="#fdefef"/><path d="M1382.409 691.39a25.673 25.673 0 00-25.644 25.644v12.856a2.908 2.908 0 002.9 2.9h1.051v.062a2.908 2.908 0 002.9 2.9h1.977a2.908 2.908 0 002.9-2.9V720.99a2.908 2.908 0 00-2.9-2.9h-1.968a2.908 2.908 0 00-2.9 2.9v.062h-2.1v-4.019a23.79 23.79 0 1147.58 0v4.017h-2.1v-.06a2.908 2.908 0 00-2.9-2.9h-1.989a2.908 2.908 0 00-2.9 2.9v11.862a2.908 2.908 0 002.9 2.9h1.977a2.908 2.908 0 002.9-2.9v-.062h.09a12.933 12.933 0 01-12.11 11.965 2.909 2.909 0 00-2.748-1.954h-2.962a1.918 1.918 0 00-1.916 1.916v1.973a1.918 1.918 0 001.916 1.916h2.962a2.909 2.909 0 002.759-2 14.789 14.789 0 0013.97-13.961 2.909 2.909 0 002-2.759v-12.852a25.673 25.673 0 00-25.645-25.644zm-19.836 29.6a1.052 1.052 0 011.052-1.052h1.977a1.052 1.052 0 011.05 1.052v11.862a1.052 1.052 0 01-1.051 1.051h-1.976a1.052 1.052 0 01-1.051-1.051zm-1.854 1.916v8.033h-1.05a1.052 1.052 0 01-1.05-1.049v-6.986zm41.524 9.948a1.052 1.052 0 01-1.051 1.051h-1.976a1.052 1.052 0 01-1.051-1.051V720.99a1.052 1.052 0 011.051-1.051h1.977a1.052 1.052 0 011.051 1.051zm-12.918 13.901h-2.962a.062.062 0 01-.062-.062v-1.977a.062.062 0 01.062-.062h2.962a1.05 1.05 0 110 2.1zm16.873-16.865a1.052 1.052 0 01-1.051 1.051h-1.05v-8.037h2.1v6.986z" fill="#f95959"/><path d="M1388.341 725.005a1.915 1.915 0 101.915 1.915 1.918 1.918 0 00-1.915-1.915zm-5.933 0a1.915 1.915 0 101.916 1.915 1.918 1.918 0 00-1.916-1.915z" fill="#f95959"/><path d="M1390.313 717.095h-15.814a3.9 3.9 0 00-3.893 3.893v11.864a3.9 3.9 0 003.893 3.893h8.96v2.33a1.623 1.623 0 002.772 1.148l3.478-3.478h.609a3.9 3.9 0 003.895-3.893v-11.864a3.9 3.9 0 00-3.9-3.893zm2.039 15.757a2.041 2.041 0 01-2.039 2.039h-.993a.926.926 0 00-.655.272l-3.356 3.356v-2.7a.927.927 0 00-.927-.927h-9.887a2.041 2.041 0 01-2.039-2.039v-11.865a2.041 2.041 0 012.039-2.039h15.818a2.041 2.041 0 012.039 2.039v11.864z" fill="#f95959"/><path d="M1376.481 725.005a1.915 1.915 0 101.916 1.915 1.918 1.918 0 00-1.916-1.915z" fill="#f95959"/></g></svg>