<svg xmlns="http://www.w3.org/2000/svg" xmlns:xlink="http://www.w3.org/1999/xlink" width="197.232" height="161.733"><defs><linearGradient id="f" x1=".482" y1=".228" x2=".628" y2="1.281" gradientUnits="objectBoundingBox"><stop offset="0" stop-color="#94e69a"/><stop offset="1" stop-color="#17adc9"/></linearGradient><linearGradient id="j" x1=".444" y1=".352" x2=".608" y2=".706" xlink:href="#a"/><linearGradient id="b" x1=".365" y1=".388" x2=".891" y2=".824" gradientUnits="objectBoundingBox"><stop offset="0" stop-color="#1c8ef4"/><stop offset="1" stop-color="#00cfdd"/></linearGradient><linearGradient id="g" x1=".404" y1=".197" x2=".58" y2=".753" gradientUnits="objectBoundingBox"><stop offset="0" stop-color="#6d6afe"/><stop offset="1" stop-color="#3fb0f7"/></linearGradient><linearGradient id="h" x1=".384" y1=".407" x2=".759" y2=".743" xlink:href="#b"/><linearGradient id="i" x1=".643" y1=".153" x2=".361" y2=".863" gradientUnits="objectBoundingBox"><stop offset="0" stop-color="#a77ef7"/><stop offset="1" stop-color="#5e65d6"/></linearGradient><linearGradient id="a" x1=".507" y1=".589" x2=".459" y2=".31" gradientUnits="objectBoundingBox"><stop offset="0" stop-color="#ff8a78"/><stop offset="1" stop-color="#ffa799"/></linearGradient><linearGradient id="e" x1=".503" y1=".298" x2=".861" y2=".872" gradientUnits="objectBoundingBox"><stop offset="0" stop-color="#d3d3d3"/><stop offset="1" stop-color="#e1e8f6"/></linearGradient><linearGradient id="c" x1=".508" y1=".359" x2=".485" y2=".963" gradientUnits="objectBoundingBox"><stop offset="0" stop-color="#ffb89e"/><stop offset="1" stop-color="#ffa799"/></linearGradient><linearGradient id="k" x1=".605" y1=".534" x2=".297" y2="-.059" xlink:href="#a"/><linearGradient id="l" x1=".485" y1=".44" x2=".44" y2=".659" xlink:href="#c"/><linearGradient id="m" x1=".558" y1=".429" x2=".305" y2=".659" xlink:href="#a"/><linearGradient id="n" x1=".597" y1=".241" x2=".312" y2=".78" xlink:href="#c"/><linearGradient id="d" x1=".079" y1="2.027" x2=".485" y2=".07" gradientUnits="objectBoundingBox"><stop offset="0" stop-color="#c9c4c1"/><stop offset="1" stop-color="#fff6de"/></linearGradient><linearGradient id="o" x1="-.105" y1=".5" x2=".895" y2=".5" xlink:href="#d"/></defs><path d="M195.629 100.617c-3.412-9.514-8.786-12.409-13.9-18.513-6.242-7.453-10.453-12.872-8.832-22.458 2.649-15.665 3.783-54.735-37.69-49.628-14.865 1.831-26.611 13.222-35.157 24.592-7.271 9.676-20.351 10.529-30.879 12.785A155.363 155.363 0 0031.09 60.487C6.442 73.12-.92 91.282.09 114.519c.3 7.021 1.3 18.079 13.156 31.018 16.007 17.464 39.266 19.8 67.261 11.783 6.408-1.836 12.465-4.715 18.769-6.883a88.562 88.562 0 0120.256-4.4c16.078-1.555 32.746 1.257 48.17-3.544a50.82 50.82 0 0021.544-13.361c7.367-7.714 9.983-18.472 6.383-28.515z" fill="#fdefef"/><g fill-rule="evenodd"><path d="M57.498 136.948l50.567-27.964c1.241-.567 3.066-1.1 4.283-.36l3.115 1.9c.626.382 2.687 1.649 1.309 2.4-4.055 2.2-47.085 26.2-51.2 28.445a5.78 5.78 0 01-3.114.477 7.82 7.82 0 01-3.373-1l-1.244-.767c-.879-.543-1.367-1.135-1.414-1.7s.309-1.084 1.071-1.431z" fill="#e43737" opacity=".5"/><path d="M479.441 441.295a2.8 2.8 0 012.384-.266l1.79.7c.65 3.363-37.064 126.656-37.894 127.511l-1.6-.6a3.122 3.122 0 01-1.753-2.566L428.882 474a.05.05 0 010-.01 6.578 6.578 0 011.1-4.454 5.182 5.182 0 011.8-1.737z" transform="translate(-383.148 -430.454)" fill="url(#e)"/><path d="M50.398 38.028l47.66-26.506c1.944-1.077 3.795-.043 4.138 2.3l13.488 92.068a6.465 6.465 0 01-2.892 6.2l-47.661 26.506c-1.944 1.077-3.8.046-4.142-2.3L47.501 44.227a6.472 6.472 0 012.897-6.199z" fill="#f95959"/><path d="M50.398 38.028l47.66-26.506c1.944-1.077 3.795-.043 4.138 2.3l.691 4.715-54.693 30.416-.692-4.726a6.472 6.472 0 012.896-6.199z" fill="#e43737"/><path d="M111.322 93.743l-16.254 8.911-.071-.491 16.254-8.911-1.983-13.506-16.254 8.906-.071-.491 16.254-8.906-1.978-13.506L90.96 74.66l-.071-.491 16.254-8.911-1.977-13.511-16.253 8.911-.077-.491 16.259-8.9-1.982-13.511-16.254 8.908-.071-.49 16.254-8.909-1.983-13.5-16.254 8.909 1.983 13.5.071.491 1.976 13.507.077.491 1.976 13.511.071.491 1.983 13.5.071.491 1.983 13.511.071.491 1.983 13.506 16.254-8.911-1.983-13.506zm-43.2-51.934L84.375 32.9l1.983 13.5-16.252 8.911.071.491 16.253-8.907 1.983 13.507-16.259 8.911.076.491 16.254-8.91 1.976 13.51-16.252 8.906.076.491 16.254-8.911 1.976 13.506-16.253 8.911.071.491 16.253-8.911 1.983 13.511-16.252 8.9.071.492 16.252-8.9 1.983 13.505-16.253 8.911-1.982-13.511-.071-.492-1.983-13.5-.071-.491-1.978-13.506-.076-.491-1.978-13.506-.076-.491-1.977-13.511-.071-.491-1.983-13.5zm-16.683 9.144l1.983 13.5.071.491 1.983 13.506.07.491 1.977 13.511.076.491 1.978 13.5.071.491 1.983 13.511.071.491 1.983 13.506 16.253-8.906-1.982-13.505-16.254 8.911-.071-.491 16.254-8.911-1.983-13.506-16.256 8.906-.071-.491 16.253-8.906-1.978-13.506-16.254 8.911-.076-.491 16.254-8.911-1.978-13.5-16.253 8.9-.07-.491 16.252-8.906-1.979-13.512-16.253 8.911-.071-.491 16.253-8.911-1.983-13.5-16.254 8.91zm49.979-27.924l12.387 84.476-50.476 27.666-12.357-84.49z" fill="#fff"/><path d="M790.006 1357.14l1.766-.975a1.112 1.112 0 00.507-.91l.095-2.387a1.079 1.079 0 01.5-.909.514.514 0 01.746.216l.991 1.782a.521.521 0 00.746.218l1.765-.982c.639-.358 1.122.506.7 1.257l-1.155 2.077a1.11 1.11 0 00-.042 1.041l1 1.779a1.126 1.126 0 01-.4 1.417.538.538 0 01-.42.053l-1.7-.5a.544.544 0 00-.421.058.934.934 0 00-.353.371l-1.151 2.082a.927.927 0 01-.351.374c-.411.228-.885-.068-.857-.723l.1-2.388a.726.726 0 00-.436-.776l-1.707-.491c-.607-.175-.561-1.33.077-1.684z" transform="translate(-705.171 -1243.836)" fill="url(#f)"/><path d="M81.528 69.385c.994-.551 2.05.192 2.039 1.631a2.878 2.878 0 01-.819 1.992 1.953 1.953 0 01-.4.3c-.993.55-2.043-.193-2.035-1.625a2.873 2.873 0 01.813-2 1.965 1.965 0 01.406-.3zm.958 4.6a2.637 2.637 0 00.541-.4 3.881 3.881 0 001.1-2.68c.012-1.93-1.4-2.933-2.741-2.192a2.616 2.616 0 00-.548.412 3.852 3.852 0 00-1.094 2.679c-.008 1.925 1.405 2.926 2.74 2.186zm-4.553-1.64a.73.73 0 00-.308.759l.243 1.131a.358.358 0 00.534.289l.119-.066a.334.334 0 01.471.13 3.576 3.576 0 00.216.321.668.668 0 01.048.64l-.063.153a.593.593 0 00.159.737l.819.442a.339.339 0 00.332-.012.634.634 0 00.266-.32l.063-.15a.625.625 0 01.263-.315.383.383 0 01.2-.05c.116 0 .233 0 .35-.015a.375.375 0 01.391.336l.031.148a.358.358 0 00.534.288l.913-.506a.729.729 0 00.31-.756l-.032-.147a.771.771 0 01.178-.651c.1-.108.19-.22.281-.335a.57.57 0 01.174-.155.334.334 0 01.328-.012l.107.055a.338.338 0 00.332-.011.634.634 0 00.266-.32l.474-1.159a.593.593 0 00-.158-.737l-.108-.059a.527.527 0 01-.208-.551c.022-.155.037-.311.047-.467a.706.706 0 01.321-.568l.119-.066a.729.729 0 00.309-.756l-.243-1.131c-.063-.292-.3-.421-.535-.292l-.119.066a.333.333 0 01-.471-.13 3.4 3.4 0 00-.217-.321.662.662 0 01-.047-.637l.063-.153a.6.6 0 00-.159-.74l-.819-.443a.338.338 0 00-.332.012.634.634 0 00-.266.319l-.063.153a.626.626 0 01-.263.316.378.378 0 01-.2.051 2.844 2.844 0 00-.35.012.369.369 0 01-.39-.333l-.032-.148c-.063-.292-.3-.421-.535-.292l-.913.506a.73.73 0 00-.308.759l.032.147a.761.761 0 01-.177.646q-.147.162-.283.34a.564.564 0 01-.174.155.334.334 0 01-.328.012l-.108-.058a.337.337 0 00-.332.012.635.635 0 00-.266.319l-.474 1.159a.6.6 0 00.159.74l.108.058a.524.524 0 01.208.549q-.032.233-.047.467a.705.705 0 01-.321.569zm23.164 34.037c.542 2.52 2.643 3.658 4.681 2.529a6.408 6.408 0 002.711-6.626c-.542-2.52-2.646-3.657-4.681-2.529a6.4 6.4 0 00-2.711 6.626zm3.285-1.032a.825.825 0 01-.389-.573 1.435 1.435 0 01.368-1.264l-.486-2.262a.4.4 0 01.167-.41.2.2 0 01.287.158l.487 2.263a.694.694 0 01.775.63 1.378 1.378 0 01-.585 1.43.808.808 0 01-.276.095l-.919 3.351a.25.25 0 01-.12.161.211.211 0 01-.113.027c-.1 0-.144-.15-.107-.279l.911-3.325zm-.749-6.407c2.4-1.33 4.872.007 5.511 2.978s-.793 6.476-3.191 7.806-4.876-.009-5.515-2.98.796-6.475 3.195-7.804z" fill="#fff"/><path d="M94.436 73.157l10.217-5.617a.518.518 0 01.8.451l1.311 11.2a1.272 1.272 0 01-.606 1.194L95.94 86.002a.518.518 0 01-.795-.457l-1.311-11.2a1.259 1.259 0 01.602-1.188z" fill="#3e4869"/><path d="M95.721 74.254a.528.528 0 00-.214.7l4.978 6.417a.229.229 0 00.3.046.535.535 0 00.235-.284l3.021-7.9c.127-.326-.066-.595-.327-.457l-1.442.758a.55.55 0 00-.239.289l-1.249 3.269a.537.537 0 01-.237.285.225.225 0 01-.3-.046l-2.9-3.727a.229.229 0 00-.3-.044z" fill="#fff"/><path d="M55.654 39.926a1.486 1.486 0 00-.8 1.971 1.565 1.565 0 002.08.633 1.486 1.486 0 00.8-1.971 1.565 1.565 0 00-2.08-.633z" fill="#0a3c5f"/><path d="M55.57 40.326a1.176 1.176 0 001.422 1.845 1.279 1.279 0 01-1.937-.423 1.114 1.114 0 01.515-1.422z" fill="#1466a0"/><path d="M50.607 30.562c-2.1.915-2.627 3.655-1.563 6.521l1.379-.766c-.561-1.875-.569-3.521.93-4.173s4.234.7 5.405 2.959.975 4.518-.678 5.238a.776.776 0 00-.421 1.036.823.823 0 001.072.492c.077-.027.153-.058.228-.091 2.381-1.037 2.909-4.045 1.219-7.3s-5.19-4.949-7.571-3.916z" fill="#daeafa"/><path d="M49.365 36.905l1.058-.588c-.561-1.876-.569-3.521.93-4.173s4.234.7 5.405 2.959.975 4.518-.678 5.238a.731.731 0 00-.474.616 2.666 2.666 0 002.183-2.025c.723-2.336-.637-4.861-2.442-6.384a4.605 4.605 0 00-4.727-1.07c-2.431 1.26-1.612 4.323-1.255 5.427z" fill="#b4cce5"/><path d="M63.721 35.527a1.486 1.486 0 00-.8 1.971 1.565 1.565 0 002.08.633 1.486 1.486 0 00.8-1.971 1.565 1.565 0 00-2.08-.633z" fill="#0a3c5f"/><path d="M63.636 35.927a1.176 1.176 0 001.422 1.845 1.279 1.279 0 01-1.937-.423 1.114 1.114 0 01.515-1.422z" fill="#1466a0"/><path d="M58.672 26.163c-2.1.915-2.627 3.655-1.563 6.521l1.379-.766c-.561-1.875-.568-3.521.93-4.173s4.233.7 5.405 2.959.974 4.518-.678 5.238a.776.776 0 00-.421 1.036.822.822 0 001.072.492c.077-.027.153-.058.228-.091 2.381-1.037 2.908-4.045 1.219-7.3s-5.189-4.953-7.571-3.916z" fill="#daeafa"/><path d="M57.431 32.505l1.058-.588c-.561-1.875-.568-3.521.93-4.173s4.233.7 5.405 2.959.974 4.518-.678 5.238a.73.73 0 00-.474.616 2.666 2.666 0 002.183-2.025c.724-2.336-.636-4.861-2.442-6.384a4.606 4.606 0 00-4.727-1.07c-2.431 1.261-1.615 4.323-1.255 5.427z" fill="#b4cce5"/><path d="M71.766 31.126a1.486 1.486 0 00-.8 1.971 1.565 1.565 0 002.08.633 1.486 1.486 0 00.8-1.971 1.564 1.564 0 00-2.08-.633z" fill="#0a3c5f"/><path d="M71.681 31.527a1.176 1.176 0 001.422 1.845 1.279 1.279 0 01-1.937-.422 1.114 1.114 0 01.515-1.423z" fill="#1466a0"/><path d="M66.717 21.763c-2.1.915-2.627 3.655-1.563 6.521l1.38-.766c-.562-1.876-.569-3.521.93-4.173s4.233.7 5.405 2.959.974 4.518-.678 5.237a.776.776 0 00-.421 1.036.822.822 0 001.072.492c.077-.027.153-.058.228-.091 2.381-1.037 2.908-4.045 1.219-7.3s-5.191-4.952-7.572-3.915z" fill="#daeafa"/><path d="M65.476 28.106l1.058-.588c-.562-1.876-.569-3.521.93-4.173s4.233.7 5.405 2.959.974 4.518-.678 5.237a.731.731 0 00-.474.616 2.666 2.666 0 002.183-2.025c.723-2.336-.636-4.86-2.442-6.384a4.606 4.606 0 00-4.727-1.07c-2.431 1.266-1.612 4.324-1.255 5.428z" fill="#b4cce5"/><path d="M79.793 26.743a1.485 1.485 0 00-.8 1.971 1.564 1.564 0 002.08.633 1.486 1.486 0 00.8-1.971 1.564 1.564 0 00-2.08-.633z" fill="#0a3c5f"/><path d="M79.708 27.144a1.176 1.176 0 001.422 1.845 1.279 1.279 0 01-1.937-.422 1.115 1.115 0 01.515-1.423z" fill="#1466a0"/><path d="M74.745 17.38c-2.1.915-2.627 3.655-1.563 6.521l1.379-.766c-.561-1.875-.568-3.521.93-4.173s4.233.7 5.405 2.959.974 4.518-.678 5.238a.775.775 0 00-.421 1.036.822.822 0 001.072.492c.077-.027.153-.058.228-.091 2.381-1.037 2.908-4.045 1.219-7.3s-5.19-4.953-7.571-3.916z" fill="#daeafa"/><path d="M73.503 23.723l1.058-.588c-.561-1.875-.568-3.521.93-4.173s4.233.7 5.406 2.959.975 4.518-.678 5.238a.73.73 0 00-.474.616 2.666 2.666 0 002.183-2.025c.724-2.336-.636-4.861-2.442-6.384a4.605 4.605 0 00-4.727-1.07c-2.432 1.257-1.613 4.323-1.256 5.427z" fill="#b4cce5"/><path d="M87.833 22.346a1.486 1.486 0 00-.8 1.971 1.565 1.565 0 002.08.633 1.486 1.486 0 00.8-1.971 1.564 1.564 0 00-2.08-.633z" fill="#0a3c5f"/><path d="M87.747 22.746a1.176 1.176 0 001.422 1.845 1.279 1.279 0 01-1.937-.423 1.114 1.114 0 01.515-1.422z" fill="#1466a0"/><path d="M82.784 12.982c-2.1.915-2.627 3.655-1.563 6.521l1.38-.766c-.561-1.876-.569-3.521.93-4.173s4.233.7 5.405 2.959.974 4.518-.678 5.238a.776.776 0 00-.421 1.036.823.823 0 001.072.492c.077-.027.153-.058.228-.091 2.381-1.037 2.908-4.045 1.219-7.3s-5.19-4.953-7.572-3.916z" fill="#daeafa"/><path d="M81.543 19.324l1.058-.588c-.561-1.876-.569-3.521.93-4.173s4.233.7 5.405 2.959.974 4.518-.678 5.237a.731.731 0 00-.474.616 2.666 2.666 0 002.183-2.025c.723-2.336-.637-4.86-2.442-6.384a4.606 4.606 0 00-4.727-1.07c-2.427 1.262-1.612 4.324-1.255 5.428z" fill="#b4cce5"/><path d="M95.865 17.963a1.486 1.486 0 00-.8 1.971 1.565 1.565 0 002.08.633 1.486 1.486 0 00.8-1.971 1.564 1.564 0 00-2.08-.633z" fill="#0a3c5f"/><path d="M95.779 18.364a1.176 1.176 0 001.422 1.845 1.279 1.279 0 01-1.937-.423 1.114 1.114 0 01.515-1.422z" fill="#1466a0"/><path d="M90.816 8.601c-2.1.915-2.627 3.655-1.563 6.521l1.38-.766c-.562-1.876-.569-3.521.93-4.173s4.233.7 5.406 2.959.974 4.518-.678 5.238a.776.776 0 00-.421 1.036.822.822 0 001.072.492c.077-.027.153-.058.228-.091 2.381-1.037 2.908-4.045 1.219-7.3s-5.192-4.954-7.573-3.916z" fill="#daeafa"/><path d="M89.575 14.943l1.058-.588c-.562-1.876-.569-3.521.93-4.173s4.233.7 5.405 2.959.975 4.518-.678 5.238a.73.73 0 00-.474.616 2.666 2.666 0 002.183-2.025c.724-2.336-.636-4.861-2.442-6.384a4.605 4.605 0 00-4.727-1.07c-2.43 1.26-1.612 4.323-1.255 5.427z" fill="#b4cce5"/><path d="M82.436 40.759a9.7 9.7 0 01-3.892 8.557c-2.5 1.585-4.9-.456-5.162-2.819a7.627 7.627 0 01.894-4.9c.435.24.871.48 1.305.716A4.9 4.9 0 0075 45.474a2.18 2.18 0 003.317 1.811 6.234 6.234 0 002.5-5.5l1.619-1.026z" fill="#fff"/><path d="M80.658 37.579a3.918 3.918 0 011.777 3.18c-.541.343-1.085.686-1.619 1.026a2.519 2.519 0 00-1.14-2.044q.493-1.078.982-2.162z" fill="#bf7dec"/><path d="M77.273 37.939a3.281 3.281 0 013.385-.364q-.487 1.086-.981 2.167a2.106 2.106 0 00-2.174.232 5.526 5.526 0 00-1.939 2.373c-.435-.235-.87-.471-1.3-.711a8.541 8.541 0 013.009-3.697z" fill="#fad0d0"/><path d="M77.377 99.032L91.629 91.3a.287.287 0 01.439.24l.193 1.234a.656.656 0 01-.3.644L77.71 101.15a.284.284 0 01-.435-.243l-.194-1.234a.665.665 0 01.296-.641zm7.213.763l7.59-4.151a.287.287 0 01.439.24l.058.37a.665.665 0 01-.3.645l-7.585 4.15a.286.286 0 01-.435-.242l-.058-.37a.663.663 0 01.291-.642z" fill="#fdd"/><path d="M847.924 583.051l-11.765 6.877a7.118 7.118 0 00-3.032 6.629l1.7 12.549c.328 2.5 2.22 3.589 4.221 2.431l12.094-7.069-2.567-15.256z" transform="translate(-744.079 -557.397)" opacity=".5" fill="url(#b)" style="mix-blend-mode:multiply;isolation:isolate"/><path d="M119.188 20.688c-.1-.772.109-1.239-.274-1.676a4.53 4.53 0 00-1.336-.757 2.466 2.466 0 00-2.128.28L93.443 31.398a6.3 6.3 0 00-2.686 5.872l1.509 11.115a3.379 3.379 0 00.931 2.077 3.618 3.618 0 001.606.795c.5.063.637-.392 1.2-.719l22.007-12.863a6.3 6.3 0 002.686-5.872z" fill="#d0e7ff"/><path d="M119.786 21.042c-.29-2.214-1.964-3.18-3.738-2.153L94.041 31.752a6.3 6.3 0 00-2.686 5.872l1.509 11.115c.29 2.214 1.966 3.179 3.739 2.153l22.007-12.863a6.3 6.3 0 002.686-5.872z" fill="#fff"/><path d="M119.786 21.042c-.29-2.214-1.964-3.18-3.738-2.153L94.041 31.752a6.305 6.305 0 00-2.686 5.872l.142 1.043a5.692 5.692 0 01.594-.4l27.827-16.265z" fill="#f95959"/><g fill="#f95959"><path d="M115.9 27.849c-2.241.513-3.963 3.182-3.845 5.961s2.03 4.617 4.272 4.1 3.963-3.182 3.845-5.961-2.03-4.613-4.272-4.1z" opacity=".2"/><path d="M115.999 30.168a3.131 3.131 0 00-2.073 3.214c.064 1.5 1.095 2.489 2.3 2.213a3.131 3.131 0 002.076-3.213c-.064-1.5-1.095-2.489-2.3-2.213zm.054 1.272c.642-.147 1.19.379 1.223 1.175a1.663 1.663 0 01-1.1 1.707c-.642.147-1.189-.379-1.223-1.175a1.663 1.663 0 011.1-1.707z"/><path d="M110.712 33.198c-.077-.591-.523-.842-1-.559l-14.371 8.148a1.718 1.718 0 00-.715 1.582l.15 1.169c.078.591.524.841 1 .559l14.371-8.148a1.718 1.718 0 00.715-1.583zm.551 4.299c-.046-.349-.309-.5-.588-.33l-8.486 4.811a1.015 1.015 0 00-.422.935l.089.69c.046.349.309.5.588.33l8.486-4.811a1.014 1.014 0 00.422-.934z" opacity=".2"/></g><path d="M117.384 20.066a1.266 1.266 0 00-.838 1.3c.026.606.443 1.006.931.895a1.266 1.266 0 00.838-1.3c-.026-.606-.443-1.007-.931-.895zm-2.224 1.278a1.266 1.266 0 00-.838 1.3c.026.606.443 1.006.931.895a1.266 1.266 0 00.838-1.3c-.026-.607-.441-1.007-.931-.895zm-2.407 1.403a1.266 1.266 0 00-.838 1.3c.026.606.443 1.006.931.895a1.266 1.266 0 00.838-1.3c-.026-.606-.443-1.007-.931-.895z" fill="#fff"/><path d="M125.56 9.393l.635 4.3c.137 1.206.526 7.583 1.291 8.486a5.034 5.034 0 01-1.211-.791 1.522 1.522 0 01-.293-.753L124.431 8.82a2.8 2.8 0 011.185-2.6L135.963.179a1.059 1.059 0 011.075-.061l.929.541c-.03-.013-2.4 1.3-2.443 1.326l-8.818 4.944a8.209 8.209 0 00-1.146 2.464z" fill="#f2f4ff"/><path d="M126.546 6.763L136.892.722c.78-.455 1.526-.029 1.654.943l1.552 11.816a2.8 2.8 0 01-1.185 2.6l-10.347 6.038c-.777.455-1.522.033-1.651-.94l-1.547-11.815a2.809 2.809 0 011.178-2.601z" fill="#f95959"/><path d="M126.96 9.314c4.094-2.39 6.624-3.822 10.471-6.068a.345.345 0 01.342-.026.421.421 0 01.2.335l1.079 8.153.166 1.258a.919.919 0 01-.389.852l-10.468 6.111c-.256.15-.5.01-.542-.309l-1.247-9.456a.917.917 0 01.388-.85z" fill="#d31818" opacity=".5" style="mix-blend-mode:multiply;isolation:isolate"/><path d="M137.705 3.236l.183.111.021.035c-.208.115.038.144-.147.1q-4.72 2.755-9.455 5.479a.829.829 0 00-.35.769l-.246-.028-.083-.1-.1-.012-.176-.216a.909.909 0 01.075-.445.853.853 0 01.276-.324q4.739-2.734 9.46-5.482a.314.314 0 01.319-.018l.223.135z" fill="#bf2f3f"/><path d="M127.777 9.552v.068l.183.106c.128.973 1.337 8.557 1.113 8.74l-.236-.144-.008-.006-.176-.107a.407.407 0 01-.167-.274l-.007-.057-1.123-8.508z" fill="#bf2f3f"/><path d="M128.104 8.845c3.7-2.159 5.985-3.453 9.461-5.482a.311.311 0 01.309-.024.381.381 0 01.181.3l.975 7.366.15 1.137a.831.831 0 01-.351.77l-9.458 5.521c-.231.135-.451.009-.489-.279l-1.127-8.543a.829.829 0 01.349-.766z" fill="#f95959"/><path d="M127.744 9.544l7.263 3.532 3.043-9.437z" fill="#e43737"/><path d="M128.103 8.845c3.7-2.159 5.985-3.453 9.46-5.482a.312.312 0 01.309-.024.369.369 0 01.176.274l-3.212 8.471-7.09-2.547a.828.828 0 01.357-.692z" fill="#fdefef"/><path d="M136.819 3.796q-.887.518-1.774 1.042l1.226 9.488 1.775-1.029z" fill="#f95959" opacity=".2"/><path d="M133.488 13.049c-.027-.2-.181-.292-.344-.2l-3.795 2.2a.583.583 0 00-.247.542l.212 1.713c.027.2.182.292.344.2l3.795-2.2a.583.583 0 00.247-.542z" fill="#fff"/><path d="M133.146 13.978c-.011-.088-.078-.125-.148-.083l-1.6.909a.257.257 0 00-.106.236l.023.174c.011.088.078.125.148.083l1.6-.909a.257.257 0 00.107-.236zm.099.764c-.01-.077-.069-.11-.131-.073-.9.515-2.389 1.357-3.294 1.872a.226.226 0 00-.094.208l.02.153c.01.077.069.11.131.073.9-.515 2.389-1.357 3.294-1.872a.226.226 0 00.094-.208z" opacity=".25" fill="#f95959"/><path d="M21.711 28.082l.635 4.3c.137 1.206.526 7.583 1.291 8.486a5.031 5.031 0 01-1.211-.791 1.525 1.525 0 01-.293-.753l-1.551-11.815a2.8 2.8 0 011.185-2.6l10.347-6.041a1.059 1.059 0 011.075-.062l.929.542c-.03-.014-2.4 1.3-2.443 1.326l-8.818 4.946a8.205 8.205 0 00-1.146 2.462z" fill="#f2f4ff"/><path d="M22.697 25.453l10.346-6.04c.78-.455 1.525-.029 1.654.943l1.548 11.815a2.8 2.8 0 01-1.185 2.6l-10.347 6.038c-.777.455-1.522.033-1.651-.94l-1.548-11.815a2.81 2.81 0 011.183-2.601z" fill="#f95959"/><path d="M226.308 545.926c-.2-1.543-1.372-2.212-2.609-1.489l-6.63 3.962a4.416 4.416 0 00-1.87 4.1l1.058 7.749c.2 1.544 1.373 2.211 2.609 1.49l6.629-3.962a4.414 4.414 0 001.871-4.1z" transform="translate(-192.386 -522.661)" opacity=".5" fill="url(#g)" style="mix-blend-mode:multiply;isolation:isolate"/><path d="M33.859 23.424c-.064-.483.068-.775-.172-1.047a1.993 1.993 0 00-.545-.344 4.074 4.074 0 00-.594-.286 1.544 1.544 0 00-1.33.181l-5.942 3.551a3.958 3.958 0 00-1.676 3.679l.948 6.946a2.106 2.106 0 00.583 1.3 2.54 2.54 0 00.584.363 1.989 1.989 0 00.723.29c.315.038.4-.247.751-.453l5.942-3.551a3.956 3.956 0 001.677-3.679z" fill="#d31818"/><path d="M34.232 23.643c-.183-1.383-1.23-1.983-2.338-1.335l-5.942 3.551a3.958 3.958 0 00-1.677 3.679l.949 6.945c.182 1.383 1.231 1.982 2.338 1.335l5.942-3.551a3.957 3.957 0 001.677-3.679z" fill="#fff"/><path d="M34.28 23.649c-.183-1.387-1.235-2.008-2.347-1.358l-5.978 3.566a3.9 3.9 0 00-1.675 3.713l.174 1.314 10-5.9z" fill="#ed4141"/><path d="M34.126 26.442c-.043-.323-.287-.459-.545-.3l-7.858 4.494a.944.944 0 00-.39.868l.083.639c.043.323.287.459.545.3l7.858-4.495a.943.943 0 00.391-.867zm.326 2.529c-.043-.323-.287-.459-.545-.3l-7.858 4.494a.944.944 0 00-.39.868l.083.639c.043.323.287.459.545.3l7.858-4.495a.943.943 0 00.39-.867zm.31 2.4c-.043-.323-.287-.459-.545-.3l-7.858 4.494a.944.944 0 00-.39.868l.083.639c.043.323.287.459.545.3l7.858-4.494a.944.944 0 00.39-.868z" opacity=".2" fill="#f95959"/><path d="M62.707 79.096l7.968-4.343a.273.273 0 01.418.229l.184 1.174a.624.624 0 01-.286.613l-7.967 4.344a.27.27 0 01-.414-.231l-.184-1.174a.632.632 0 01.281-.612zm-5.171 1.098a.231.231 0 00-.094.306l2.182 2.813a.1.1 0 00.132.02.233.233 0 00.1-.125l1.325-3.463c.056-.143-.029-.261-.143-.2l-.632.333a.241.241 0 00-.1.126l-.548 1.433a.235.235 0 01-.1.125.1.1 0 01-.132-.02l-1.271-1.634a.1.1 0 00-.132-.019zm5.893 4.393l7.968-4.344a.273.273 0 01.418.229l.184 1.174a.624.624 0 01-.286.613l-7.967 4.344a.27.27 0 01-.413-.231l-.184-1.174a.632.632 0 01.28-.611zm-5.173 1.099a.231.231 0 00-.094.306l2.182 2.813a.1.1 0 00.132.02.235.235 0 00.1-.125l1.324-3.463c.056-.143-.029-.261-.143-.2l-.632.333a.241.241 0 00-.1.126l-.548 1.433a.235.235 0 01-.1.125.1.1 0 01-.132-.02L58.974 85.4a.1.1 0 00-.132-.019z" fill="#93e599"/><path d="M545.4 892.682l.265 11.1-10.789 6.318.043-11.15z" transform="translate(-477.833 -833.848)" opacity=".5" fill="url(#h)" style="mix-blend-mode:multiply;isolation:isolate"/><path d="M67.551 58.817a15.066 15.066 0 002.257 8.485L59.343 73.91c-1.21-1.437-2.323-5.808-2.228-8.811z" fill="#fdefef"/></g><path d="M124.035 57.735c1.3-.747 5.91-7.377 8.356-11.02 1.388-2.067 1.089-4.006-1.044-4.747-4.221-1.466-5.438 3.818-6.785 6.338-1.5 2.816-3.162 5.051-3.525 7.22a2.149 2.149 0 002.998 2.209z" fill="#7662e3" fill-rule="evenodd"/><g fill-rule="evenodd"><path d="M141.121 108.744a7.867 7.867 0 00.242 1.083 12.926 12.926 0 01.605 1.74c.319 1.213-.028 2.837.405 4.552a1.857 1.857 0 01-.22 1.841 3.062 3.062 0 01-2.341 1.51 1.693 1.693 0 01-1.172-.561 2.834 2.834 0 01-.748-2.033 16.8 16.8 0 00.116-2.34c-.052-.84-.219-1.3-.225-2.224-.007-.974.031-2.314.028-2.943zm-9.821-4.99a5.752 5.752 0 01.609 2.435c-.177.636-.617.894-1.1 1.333l-.35.077c-.859.472-1.131 2.127-1.92 2.88a6.108 6.108 0 01-2.806 1.039c-1.2.233-2.354-.112-2.067-1.06.714-2.355 4.009-5.016 4.013-7.647z" fill="#16193b"/><path d="M125.773 86.966c.213 4.512 1.432 12.957 1.407 17.4a2.942 2.942 0 004.2-.385c.353-4.092.736-9.9.727-12.149a17.605 17.605 0 00-.747-5.265c.532-4.937 3.195-11.674 2.385-16.319-.355-2.04-1.754-4.236-2.19-5.92-3.247 4.143-5.865 2.157-7.267 1.8.048 1.432-.066 1.24.023 2.745.3 5.088.688 10.521 1.115 15.8a7.287 7.287 0 00.347 2.293z" fill="#3e4869"/><path d="M131.934 96.116c.108-1.777.177-3.324.173-4.28a17.6 17.6 0 00-.747-5.265c.532-4.937 3.195-11.674 2.385-16.319-.355-2.04-1.754-4.236-2.19-5.92-3.247 4.143-5.865 2.157-7.267 1.8.005.159.009.3.01.423l4.5 3.257-1.093-.245c.205 5.863 1.08 11.208 1.352 16.99a89.7 89.7 0 012.857 9.459z" fill="#1e2353" opacity=".3" style="mix-blend-mode:multiply;isolation:isolate"/><path d="M133.355 90.249c.937 4.512 3.608 15.462 4.3 19.909 1.479.809 3.326.386 3.808-.8-.1-4.091-.32-11.45-.689-13.7a28.765 28.765 0 00-1.843-6.429c0-10.542 1.1-13.352-.452-18-.682-2.04-2.374-4.009-3.081-5.692-.864 1.386-2.2 3.354-5.192 3.11-.292-.024-2.83-1.8-3.657-2.005 1.217 6.272 4.446 14.465 6.1 21.305a8.092 8.092 0 00.706 2.302z" fill="#3e4869"/></g><g fill-rule="evenodd"><path d="M129.543 42.39a2.438 2.438 0 00-.93.243c-2.249 1.051-3.087 4.537-3.65 7.612a46.149 46.149 0 00-.42 7.341c-.068 1.967-.448 3.766-.49 5.629a5.965 5.965 0 00.028 1.75 8.459 8.459 0 01.09 1.4c1.785 3.918 11.33 4.494 12.987 2.162a3.507 3.507 0 01-.277-1.066c.851-.782.305-2.977.562-4.462a12.128 12.128 0 01.823-3.045c1.632-3.335 3.762-5.842 4.332-8.45.393-1.8-1.769-4.217-4.7-6.26-2.82-1.964-6.747-3.2-8.355-2.854z" fill="#f95959"/><path d="M124.994 52.088a25.007 25.007 0 002.3 2.207l-1.5 1.957-.8-4.165zm11.692 8.493a.289.289 0 00-.279.27.243.243 0 00.241.269.289.289 0 00.279-.27.243.243 0 00-.241-.269zm-1.451-1.694a.289.289 0 00-.279.27.243.243 0 00.241.269.289.289 0 00.279-.27.243.243 0 00-.241-.269zm-1.906 1.048a.289.289 0 00-.279.27.243.243 0 00.241.269.289.289 0 00.279-.27.243.243 0 00-.241-.269zm-1.4-2.152a.289.289 0 00-.279.27.243.243 0 00.242.269.289.289 0 00.279-.27.243.243 0 00-.241-.269zm-1.988.632a.289.289 0 00-.279.27.243.243 0 00.241.269.289.289 0 00.279-.27.243.243 0 00-.241-.269zm-1-2.34a.289.289 0 00-.279.27.243.243 0 00.241.269.289.289 0 00.279-.27.243.243 0 00-.241-.269zm-1.985.343a.289.289 0 00-.279.27.243.243 0 00.241.269.289.289 0 00.279-.27.243.243 0 00-.241-.269zm-.865-2.527a.289.289 0 00-.279.27.243.243 0 00.241.269.289.289 0 00.279-.27.243.243 0 00-.241-.269zm-1.5.569a.293.293 0 00.06-.157.257.257 0 00-.052-.178l-.007.335zm13.932 4.709a.289.289 0 00-.279.27.247.247 0 00.152.252q.125-.247.252-.488a.239.239 0 00-.125-.034zm-10.8-4.523a22.49 22.49 0 002.605 1.822l-2.029 1.905-.576-3.727zm3.055 2.081a17.048 17.048 0 002.581 1.184l-1.891 2.194-.69-3.378zm3.181 1.384a12.915 12.915 0 002.787.547l-1.743 2.523-1.044-3.07zm3.141.57a11.383 11.383 0 001.864-.056q.155-.28.312-.553a11.745 11.745 0 01-5.525-.574l-.01-.029-.017.02a22.157 22.157 0 01-8.811-6.3l-.08-.125a20.4 20.4 0 00-.131 1.154l.749 3.894a20.58 20.58 0 01-.867-.9l-.007.768c1.976 2.052 7.028 6.548 13.03 6.154.036-.175.073-.349.113-.519a11.215 11.215 0 01-2.581-.106l1.743-2.522.918 2.308c.045-.171.092-.338.142-.5l-.841-2.114zm-2.342 2.763a14.084 14.084 0 01-3.175-1.017l2.029-2.354 1.146 3.371zm-3.584-1.208a19.437 19.437 0 01-2.711-1.608l2-1.878.712 3.485zm-3.206-1.966l-.561-3.624-1.477 1.923a24.444 24.444 0 002.037 1.7z" fill="#3e4869"/><path d="M1189.62 814.986a3.409 3.409 0 001.978-1.089 3.511 3.511 0 01-.277-1.066c.852-.782.305-2.977.561-4.462a12.144 12.144 0 01.823-3.045c1.633-3.335 3.762-5.842 4.332-8.45a4.074 4.074 0 00-1.257-3.226 3.15 3.15 0 00-2.541.482c-1.631 1.38-2.014 4.609-2.518 6.8-.763 3.326-3.008 2.167-4.642 1.3a5.533 5.533 0 002.87 1.553c.38.095.688.84.632 1.6-.169 2.284-.409 5.188-.409 7.513-3.114 1.128-6.753.214-8.482-.53a12.609 12.609 0 008.526 1.436 1.411 1.411 0 01.404 1.184z" transform="translate(-1054.439 -745.369)" opacity=".25" fill="url(#i)" style="mix-blend-mode:multiply;isolation:isolate"/></g><g fill-rule="evenodd"><path d="M1265.628 976.56c-.5.181-1.352.283-1.714.412-.187.067-1.537.578-2.3.9-.819.344-1.161 1-1.747 1.7a4.986 4.986 0 00-.765 1.317c-.111.319.6 1.115.969 1.107a5.91 5.91 0 002.092-.915c1.989-.58 2.871-.5 3.67-1.118.341-.263.694-1.159 1.434-1.881l-.909-1.219z" transform="translate(-1124.437 -908.738)" fill="url(#a)"/><path d="M142.867 49.147c2.472 2.417 4.971 6.658 7.4 9.785.873 1.122.4 2.051-.29 3.065a31.224 31.224 0 01-5.981 6.825 1.9 1.9 0 01-.8.294c-.187.155-.448.433-.647.595.247-.318-1.085-1.915-1.757-1.809.173-.214.218-.3.4-.545a2.066 2.066 0 01.144-.765 27.042 27.042 0 014.061-5.923 42.533 42.533 0 01-5.337-5.24c-.407-.47-.626-.7-1.026-1.185-1.7-2.068-1.208-4.983.3-5.976.878-.586 2.019-.601 3.533.879z" fill="#f95959"/></g><g fill-rule="evenodd"><path d="M132.001 43.819c.009-.167.01-.337.017-.517.022-.513.381-1.432.524-2.585l4.682-.756a18.611 18.611 0 00-.277 5.036c-.514 1.9-5.465 1.593-5.016-.674a3.654 3.654 0 00.07-.504z" fill="#ffa698"/><path d="M1233.779 720.43c.009-.167.01-.337.017-.517.022-.513.381-1.432.524-2.585l4.682-.756c-.116.545-.193 1-.241 1.4-.234 1.615-2.419 3.995-5.052 2.965a3.654 3.654 0 00.07-.507z" transform="translate(-1101.777 -676.611)" fill="url(#j)"/></g><path d="M131.582 43.041c.633-.107 2.333-.33 2.914-.458 1.272-.281 1.553-1.232 2.453-2.518a2.766 2.766 0 002.044-1.162 4.564 4.564 0 00-.023-4.367 3.966 3.966 0 00-2.859-2.029 4.579 4.579 0 00-5.222 2.738 1.457 1.457 0 00-.153.521 6.794 6.794 0 01-.113.83c-.139.642-.631.68-.795 1.48a12.118 12.118 0 00-.06 3.868 3.858 3.858 0 001.814 1.097z" fill="#ffa698" fill-rule="evenodd"/><path d="M1214.067 664.95a7.008 7.008 0 00-.492.816 1.457 1.457 0 00-.153.521 6.842 6.842 0 01-.113.83c-.139.642-.631.68-.795 1.48a12.952 12.952 0 00-.186 2.1 2.319 2.319 0 003.187.805 5.1 5.1 0 002.347-4.514 6.2 6.2 0 01-3.795-2.038z" transform="translate(-1082.688 -630.521)" fill-rule="evenodd" fill="url(#c)"/><path d="M139.919 38.539a12.491 12.491 0 01-2.617 2.941c-.725.495-.285-.149-.216-.736a.7.7 0 00.42-.323c.36-.606.709-1.686-.329-1.675-.535.005-.952.522-1.151 1.021a.669.669 0 01-.33.139c-.176.015-.509-.006-.341-.418.582-1.424-.041-1.816.542-2.567.437-.563.518-.851.465-1.147-.488-.139-.991.2-1.632.2a5.146 5.146 0 01-3.064-1.716 1.89 1.89 0 01.988-3.015 18.5 18.5 0 012.475-.312 3.943 3.943 0 014.425 2.54c1.902 1.341 1.25 3.434.365 5.068z" fill="#2b4061" fill-rule="evenodd"/><path d="M137.178 38.746c1.038-.011.689 1.069.329 1.675-.247.416-.607.261-.858.571a.893.893 0 01-.97.358c-.563-.2.067-.931.245-1.244.114-.569.594-1.353 1.254-1.36z" fill="#ffa698" fill-rule="evenodd"/><g fill-rule="evenodd"><path d="M126.802 47.427a11.618 11.618 0 011.755-1.886 4.449 4.449 0 001.459-2.971.869.869 0 00-.591-.822 4.043 4.043 0 00-.577-.069 2.336 2.336 0 00-.563-.693.6.6 0 00-.719-.155 3.9 3.9 0 00-1.111.492 6.676 6.676 0 00-.888 1.19 3.227 3.227 0 00-.567 1.624c.18.764.4.945.245 1.406l-.409 1.243z" fill="#ffb79d"/><path d="M129.305 41.69a2.118 2.118 0 00-.411-.772.631.631 0 00-.73-.266 4.131 4.131 0 00-1.233.354 7.054 7.054 0 00-1.1 1.116 3.882 3.882 0 00-.713 1.246l.454.1 1.031-.225c1.602.014 2.444-1.467 2.702-1.553z" fill="#ffb79d"/><path d="M126.324 43.564c.3.017.207.079.481-.039 0 .262.187.532.3.5a.467.467 0 00.3-.346.853.853 0 00-.355-.844 3.621 3.621 0 00-1.134-.094c-.3 0-.437-.025-.558.112a1.388 1.388 0 00-.229.447 1.318 1.318 0 00-.067.986c.373-.27.732-.945 1.262-.722z" fill="#ff9989"/><path d="M129.382 41.725a2.467 2.467 0 00-.489-.806.921.921 0 00-.217-.208l-1.568 2.146c.135.178.542.968-.027 1.175a5.419 5.419 0 002.301-2.307z" fill="#ff9989"/><path d="M129.763 43.555a4.256 4.256 0 00.325-1.19.571.571 0 00-.389-.746 4.3 4.3 0 00-.609-.073l-.4.069a.711.711 0 00.5 1.079 9.717 9.717 0 01-.4 1.883c-.048.147.654-.327.973-1.022z" fill="#ffb79d"/><path d="M128.693 41.597a.981.981 0 001.109.9.853.853 0 01-.9.1.608.608 0 01-.209-1z" fill="#ff9989"/><path d="M127.626 46.438c-.307.415-2.336-.292-2.485-.692l-.371.735a4.2 4.2 0 00-.745.713c-1.821 2.779-2.477 5.389-3.276 8.634a2.176 2.176 0 002.952 2.6c2.608-1.287 3.4-7.974 3.724-10.319.022-.162-.155-.622-.112-.779.093-.228.249-.75.313-.892z" fill="#f95959"/><path d="M127.627 46.439a.547.547 0 01-.459.125c-.073.415-.134.648-.292.785a6.157 6.157 0 01-2.1-.866 4.18 4.18 0 001.729 1.4c-.127 1.465-1.831 9.531-4.524 10.549a2.065 2.065 0 001.727 0c2.608-1.287 3.4-7.974 3.725-10.319.022-.162-.155-.622-.112-.779.086-.232.242-.753.306-.895z" fill="#f95959" opacity=".25" style="mix-blend-mode:multiply;isolation:isolate"/></g><g fill-rule="evenodd"><path d="M56.251 91.918a37.787 37.787 0 017.666-2.868c.236-.064 1.929-.492 2.158-.571.126-.063.693-.3.793-.351a4.143 4.143 0 001.113 2.8c-.117.047-.735.372-.863.427-.188.1-.454.636-.595.8-1.4 1.605-5.885 4.065-9.42 5.415h-.013a2.411 2.411 0 01-2.788-.573c-.4-.276-.79-.577-1.049-.747-2-1.309-5.745-6.031-8.679-13.516a8.993 8.993 0 012.436-1.424 3.247 3.247 0 013.037.415 10.693 10.693 0 012.732 4.537c.588 1.614 2.211 3.626 3.4 5.541z" fill="#3e4869"/><path d="M54.303 97c-.4-.276-.79-.577-1.049-.747-2-1.309-5.745-6.031-8.679-13.516 2.966-3.4 7.061.671 8.158 3.681a65.918 65.918 0 013.477 11.365A1.979 1.979 0 0154.303 97z" fill="#f969ac" opacity=".35" style="mix-blend-mode:multiply;isolation:isolate"/><path d="M69.091 86.587l.523-.868a.434.434 0 01.516-.156c.712.376.536 1.719-.4 2.425 1.117.039 1.5.305 1.551.808.083.786-.067 3.72-.573 3.931-.417.174-2.462.367-2.85.038-.284-.241.021-.439-.36-.84-.126-.133-.666-.136-1.072-.458a2.8 2.8 0 01-.282-2.694 2.04 2.04 0 01.238-1.091c.66-1.008 2.054-.008 2.709-1.095z" fill="#ffa698"/><path d="M621 1171.424c.271.063.2.16.568.192a2.025 2.025 0 01-.782.367c-.419-.136-.579-.157-.737.1a5.441 5.441 0 00-.261 2.737c-.17-.4-1.209-.317-1.457-.956-.178-.547-.333-1.892-.033-2.164a1.045 1.045 0 001.034.411c.637-.137 1.493-.727 1.668-.687z" transform="translate(-552.164 -1082.718)" fill="url(#k)"/><path d="M35.695 148.615a7.809 7.809 0 01-.215 1.1 12.822 12.822 0 00-.567 1.772c-.291 1.235.109 2.889-.283 4.635a1.909 1.909 0 00.277 1.875 3.231 3.231 0 002.427 1.538 1.672 1.672 0 001.177-.571 2.813 2.813 0 00.7-2.071 17.164 17.164 0 01-.185-2.383c.029-.855.186-1.326.166-2.264-.021-.992-.1-2.357-.113-3zm9.859-5.081a5.75 5.75 0 00-.551 2.48c.2.647.654.911 1.163 1.358l.358.078c.888.481 1.213 2.166 2.037 2.934a6.392 6.392 0 002.887 1.058c1.228.237 2.394-.114 2.075-1.079-.794-2.4-4.226-5.108-4.3-7.788z" fill="#20234a"/><path d="M50.705 126.436c-.088 4.6-1.089 13.2-.936 17.724a3.016 3.016 0 01-4.287-.389c-.477-4.167-1.033-10.086-1.087-12.373a17.735 17.735 0 01.611-5.362c-.682-5.028-3.586-11.889-2.895-16.62.3-2.078 1.665-4.314 2.062-6.029 3.425 4.22 6.035 2.2 7.452 1.831-.008 1.458.1 1.263.055 2.8-.16 5.182-.4 10.715-.685 16.091a7.346 7.346 0 01-.29 2.327z" fill="#f95959"/><path d="M44.69 135.755c-.16-1.809-.275-3.385-.3-4.359a17.73 17.73 0 01.611-5.362c-.682-5.028-3.586-11.889-2.895-16.62.3-2.078 1.665-4.314 2.062-6.029 3.425 4.22 6.035 2.2 7.452 1.831v.431l-4.489 3.317 1.106-.25c-.042 5.971-.781 11.415-.892 17.3a89.331 89.331 0 00-2.64 9.633z" fill="#1e2353" opacity=".3" style="mix-blend-mode:multiply;isolation:isolate"/><path d="M43.077 129.779c-.825 4.6-3.233 15.747-3.807 20.276-1.483.824-3.662.536-4.186-.668-.017-4.167 0-11.661.311-13.948a28.685 28.685 0 011.693-6.548c-.3-10.737-1.218-13.741.233-18.472.637-2.078 2.3-4.083 2.975-5.8.919 1.412 2.338 3.415 5.376 3.167.3-.024 2.831-1.834 3.667-2.042-1.06 6.387-4.115 14.731-5.6 21.7a8.068 8.068 0 01-.662 2.335z" fill="#f95959"/><path d="M47.814 80.812a2.534 2.534 0 01.948.319c2.26 1.255 3.049 4.948 3.412 8.185a48.97 48.97 0 01-.013 7.705c-.071 2.049.193 3.945.1 5.884-.027.574-.245 1.2-.3 1.809a2.957 2.957 0 00-.148 1.21c-1.132 4.315-11.828 4.673-13.385 1.751a8.63 8.63 0 00.274-1.307c-1.007-.917-.425-3.153-.584-4.714a12.63 12.63 0 00-.634-3.223c-1.455-3.583-3.486-6.342-3.889-9.093-.278-1.894 2.143-4.253 5.336-6.164 3.068-1.839 7.238-2.842 8.883-2.362z" fill="#3e4869"/><path d="M38.944 97.831a.3.3 0 01.272.3.255.255 0 01-.272.264.3.3 0 01-.272-.3.255.255 0 01.272-.264zm-1.5.5l.04.1c.043.106.083.217.121.332l1.257-2.615 1.639 2.765a11.72 11.72 0 01-2.881-.1c.057.179.108.368.154.565 6.666.964 12.624-4 14.54-5.809q.013-.395.018-.793c-.246.247-.693.677-1.3 1.2l1.175-4.424-.014-.133v-.242q-.023-.2-.049-.393l-.073.276-.077-.074a23.23 23.23 0 01-9.675 5.949l-.016-.022-.012.029a12.306 12.306 0 01-5.86.189l-.08.527a11.892 11.892 0 002.351.277l-1.211 2.519zm1.583-2.518l1.639 2.766 1.315-3.135a13.563 13.563 0 01-2.954.369zm3.6-.534a17.862 17.862 0 002.786-1.05l-.967 3.483-1.818-2.433zm3.275-1.288a23.534 23.534 0 002.857-1.716l-.874 3.856-1.983-2.14zm3.327-2.051a26.169 26.169 0 002.57-2.141l-1.141 4.3-1.429-2.157zm1.266 2.476a25.7 25.7 0 01-2.254 1.63l.85-3.75 1.4 2.12zm-2.8 1.97a20.419 20.419 0 01-2.953 1.484l1-3.594 1.955 2.109zm-3.394 1.654a14.781 14.781 0 01-3.4.833l1.444-3.443 1.951 2.61zm-7.17-1.82a.3.3 0 01.272.3.255.255 0 01-.272.264.3.3 0 01-.272-.3.255.255 0 01.272-.264zm15.136-4.343a.279.279 0 01.068.014v.548a.257.257 0 01-.07 0 .3.3 0 01-.272-.3.255.255 0 01.272-.264zm-1.748-.272a.3.3 0 01.272.3.255.255 0 01-.272.264.3.3 0 01-.272-.3.255.255 0 01.272-.264zm-1.088 2.58a.3.3 0 01.272.3.255.255 0 01-.272.264.3.3 0 01-.272-.3.255.255 0 01.272-.264zm-2.052-.5a.3.3 0 01.272.3.255.255 0 01-.272.264.3.3 0 01-.272-.3.255.255 0 01.272-.264zm-1.213 2.375a.3.3 0 01.272.3.255.255 0 01-.272.263.3.3 0 01-.272-.3.255.255 0 01.272-.264zm-2.034-.806a.3.3 0 01.272.3.255.255 0 01-.272.264.3.3 0 01-.272-.3.255.255 0 01.272-.264zm-1.624 2.149a.3.3 0 01.272.3.255.255 0 01-.272.264.3.3 0 01-.272-.3.255.255 0 01.272-.264zm-1.918-1.234a.3.3 0 01.272.3.255.255 0 01-.272.264.3.3 0 01-.272-.3.255.255 0 01.267-.267z" fill="#f95959"/><path d="M51.955 104.816a2.128 2.128 0 00-.146 1.107c-1.132 4.315-11.828 4.673-13.385 1.751a8.628 8.628 0 00.274-1.307c-1.007-.917-.425-3.152-.584-4.714a12.631 12.631 0 00-.634-3.223c-1.172-2.888-2.719-5.24-3.486-7.484l1.525-1.4 3.068-.928a19.487 19.487 0 011.186 4.8c.271 2 .379 4.018.74 6.043.432 5.42 1.262 9.074 11.442 5.355z" fill="#f969ac" opacity=".35" style="mix-blend-mode:multiply;isolation:isolate"/><path d="M45.357 111.332a1.857 1.857 0 00.578.347.484.484 0 00.272-.028l7.918-5.309 1.3-1.165 9.267-7.646c.248-.218.772-.538.811-.672a3.832 3.832 0 00-.554-.335c-.066-.069-.324 0-.867.326l-8.013 4.68a3.362 3.362 0 00-.844.576l-9.816 8.836c-.125.114-.176.295-.052.39z" fill="#d8fff7"/><path d="M45.887 111.323c-.031.1-.221.534.47.288l8.308-4.948 1.3-1.165 9.067-7.98c.6-.524.8-1.074-.409-.346l-8.013 4.68a3.371 3.371 0 00-.844.576z" fill="#9fd2fb"/><path d="M403.029 1324.495a4.72 4.72 0 00.71.346c0-.021.005-.043.009-.063a1.174 1.174 0 00.225.156c.143.055.284.107.421.161a8.36 8.36 0 001.048.166c.415.065 1.4.209 1.819.313a9.655 9.655 0 011.742 1.06l-.831.748a1.018 1.018 0 00.538.112c.757-.076 2.7-1.044 2.618-.657a6.967 6.967 0 01-.812 1.551 6.111 6.111 0 01-1.71 1.456 10.7 10.7 0 01-2.034 1.092c-.548.168-2.371-1.129-2.711-1.536-1.087-1.3-.653-1.964-1.743-2.485z" transform="translate(-359.479 -1219.387)" fill="url(#l)"/><path d="M33.328 88.591c-.752 3.292-.261 8.635-.605 12.489a2.3 2.3 0 00.043.746q0 .08.013.157c.067.848.716 1.363 1.507 1.875 2.029 1.315 3.705 2.989 7.344 4.14a3.583 3.583 0 001.164-.057c.227.068.523.238.764.308a3.555 3.555 0 011.528-2.561c-.236-.127-.518-.34-.772-.494a2.322 2.322 0 00-.473-.67 37.763 37.763 0 00-6.122-4.4c.276-.957.459-1.943.646-2.69a45.877 45.877 0 00.894-4.637c.086-.6.145-.9.216-1.516.525-4.538-5.235-6.682-6.147-2.69z" fill="#3e4869"/><path d="M46.267 82.906c.032-.172.074-.345.111-.53.105-.528-.032-1.554.109-2.763l-4.58-1.935c-.076 2.572-.5 3.1-.971 5.2.051 2.061 5.169 2.983 5.277.562a3.818 3.818 0 01.054-.534z" fill="#ffa698"/><path d="M397.042 1073.742c.032-.172.074-.345.111-.53.105-.528-.032-1.554.109-2.763l-4.58-1.935a17.804 17.804 0 01-.1 1.483c-.163 1.7 1.47 4.671 4.407 4.277a3.818 3.818 0 01.053-.532z" transform="translate(-350.775 -990.836)" fill="url(#m)"/><path d="M46.53 82.791c-.562-.371-2.1-1.3-2.6-1.673-1.1-.808-.968-1.839-1.286-3.454a2.9 2.9 0 01-1.468-1.98 4.785 4.785 0 011.871-4.178 4.159 4.159 0 013.6-.736c2.628.576 3.711 2.564 3.85 4.838a1.522 1.522 0 01-.074.565 7.151 7.151 0 00-.243.844c-.138.674.317.919.135 1.756a12.7 12.7 0 01-1.58 3.735 4.044 4.044 0 01-2.205.283z" fill="#ffa698"/><path d="M430.6 1039.954a7.331 7.331 0 01.127.991 1.524 1.524 0 01-.074.564 7.157 7.157 0 00-.243.844c-.138.674.317.919.135 1.756a13.569 13.569 0 01-.712 2.094 2.431 2.431 0 01-3.4-.577 5.35 5.35 0 01-.34-5.323 6.5 6.5 0 004.507-.349z" transform="translate(-380.23 -965.338)" fill="url(#n)"/><path d="M40.439 74.943a13.1 13.1 0 001.265 3.929c.534.858.3-.193.582-.781.216-.451.916-.5 1.127-.969a1.46 1.46 0 00.5.92c.162.088.491.21.5-.257.045-1.613.808-1.725.567-2.691-.181-.724-.137-1.036.04-1.3.526.074.865.613 1.482.879a5.4 5.4 0 003.665-.348 1.982 1.982 0 00.329-3.31 19.461 19.461 0 00-2.242-1.348 4.134 4.134 0 00-5.32.563c-2.391.487-2.652 2.77-2.495 4.713z" fill="#2b4061"/><path d="M42.981 76.302c-.991-.45-1.114.734-1.025 1.468.061.5.472.507.581.911a.935.935 0 00.778.754c.626.044.33-.921.292-1.3.132-.592.003-1.548-.626-1.833z" fill="#ffa698"/></g><path d="M162.247 117.61c2.228-1.567 4.835-12.484 4.99-18.987a9.159 9.159 0 011.933-5.943 5.023 5.023 0 001.13-4.5c-.8-4.435 1.3-6.35 1.322-6.368l-.243-.277c-.093.082-2.279 2.056-1.442 6.711a4.67 4.67 0 01-1.068 4.223 9.584 9.584 0 00-2 6.147c-.167 6.979-2.832 17.287-4.834 18.694z" fill="#f95959"/><path d="M157.578 114.426c-.21-.477-.428-.969-.674-1.49a6.254 6.254 0 00-4.268-3.861c-.456-.179-.974-.382-1.541-.637-2.675-1.2-2.157-2.974-1.7-4.537.064-.219.128-.437.183-.652.235-.92-.217-1.381-.9-2.079a7.807 7.807 0 01-1.629-2.185c-.534-1.116-.262-1.715.061-2.02.679-.643 2.244-.525 3.721.282a5.382 5.382 0 011.237 1.065 6.128 6.128 0 005.079 2.228c1.69.008 2.616.241 3.1.78.544.611.442 1.527.3 2.794-.049.438-.1.935-.139 1.472a8.585 8.585 0 001.707 5.534c1.129 1.345 2.521 4.135 1.92 5.852a2.055 2.055 0 01-1.673 1.346 4.758 4.758 0 01-.942.1c-2.08.002-2.839-1.718-3.842-3.992zm-6.926-16.857c-1.319-.72-2.734-.866-3.291-.338-.423.4-.224 1.088.018 1.594a7.388 7.388 0 001.56 2.086c.716.73 1.282 1.307.995 2.428-.056.22-.121.442-.186.664-.455 1.557-.885 3.027 1.5 4.1.56.251 1.072.453 1.525.63a6.613 6.613 0 014.466 4.047c.248.524.467 1.02.678 1.5 1.152 2.612 1.848 4.189 4.367 3.679a1.71 1.71 0 001.4-1.107c.529-1.514-.737-4.163-1.855-5.494a8.8 8.8 0 01-1.792-5.794c.034-.546.091-1.047.14-1.49.131-1.172.226-2.019-.209-2.508-.4-.447-1.268-.649-2.823-.657a6.446 6.446 0 01-5.344-2.342 5.039 5.039 0 00-1.147-1z" fill="#f95959"/><path d="M162.315 120.547l.368-.02c-.018-.346-.482-8.493-3.753-10.878a13.092 13.092 0 01-5.259-7.314c-.635-2.224-3.867-2.818-4-2.842l-.064.363c.031.006 3.143.579 3.714 2.58a13.443 13.443 0 005.4 7.511c3.123 2.283 3.59 10.517 3.594 10.6z" fill="#f95959"/><path d="M161.692 122.379c-.77-.383-.742-1.925-.7-4.258.053-2.948.127-6.985-1.417-10.7-1.639-3.945-.177-5.1 1.237-6.213 1.584-1.249 3.079-2.428.209-7.753-1.319-2.445-1.737-4.1-1.317-5.205s1.579-1.519 2.811-1.97c2.127-.779 4.538-1.661 4.226-6.163-.1-1.38.067-2.229.511-2.671.482-.48 1.193-.428 2.015-.368 1.243.091 2.651.194 3.878-1.406.128-.4 1.3-3.969 2.7-4.58a.993.993 0 01.858 0 2.87 2.87 0 011.718 1.679c.327 1.16-.523 2.468-1.507 3.983-1.546 2.381-3.3 5.079-1.481 8.29 2.4 4.246 1.134 5.731-.623 7.788a13.843 13.843 0 00-2.91 4.691c-.613 1.752.433 3.422 1.445 5.037 1.269 2.026 2.582 4.121-.182 5.939-4.569 3.006-9.08 12.817-9.125 12.916l-.019.041-.035.028a3.608 3.608 0 01-1.916.974.838.838 0 01-.376-.079zm11.272-14.181c2.462-1.62 1.355-3.388.072-5.436-1.009-1.61-2.152-3.436-1.48-5.354a14.158 14.158 0 012.977-4.809c1.721-2.015 2.858-3.346.582-7.367-1.928-3.406-.031-6.326 1.493-8.672.935-1.44 1.743-2.683 1.461-3.683a2.539 2.539 0 00-1.522-1.447.63.63 0 00-.552 0c-1.3.567-2.5 4.346-2.509 4.384l-.01.031-.019.026a4.172 4.172 0 01-4.217 1.576c-.763-.056-1.365-.1-1.728.262s-.49 1.136-.4 2.384c.331 4.778-2.33 5.752-4.467 6.534-1.2.439-2.238.819-2.593 1.755-.379 1 .033 2.556 1.3 4.9 3.018 5.6 1.329 6.929-.3 8.217-1.366 1.078-2.657 2.1-1.125 5.782 1.573 3.785 1.5 7.867 1.445 10.847-.037 2.035-.066 3.642.5 3.921.329.164.957-.113 1.868-.822.35-.793 4.672-10.034 9.224-13.029z" fill="#f95959"/><path d="M154.482 79.615c2.325-.8 1.842 3.684 2.825 7s10.93 1.446 6.754 9.749 5.281 2.777 2.456 10.022-.246 14.995-3.316 13.024-1.725-11.1-4.918-12.18-3.714-2.349-.553-5.3-8.284-5.873-5.459-11.825-.475-9.569 2.211-10.49z" fill="#f95959"/><path d="M162.132 118.935c.292-1.24 2.79-12.156.459-13.476-2.053-1.163-2-5.686-1.683-9.958.284-3.781-4.572-5.548-4.779-5.622l-.123.347c.048.017 4.8 1.747 4.535 5.247-.329 4.386-.364 9.041 1.868 10.306 1.769 1 .14 9.775-.637 13.07z" fill="#fff"/><path d="M765.718 1704l-3.32 12.594h-7.418L751.66 1704z" transform="translate(-594.815 -1588.949)" fill="url(#d)"/><path d="M765.718 1704s-7.308 1.372-7.308 12.595h-3.43L751.66 1704z" transform="translate(-594.814 -1588.948)" fill="url(#o)"/></svg>