<svg xmlns="http://www.w3.org/2000/svg" width="20" height="20" viewBox="0 0 20 20">
  <path id="phone-flip_1_" data-name="phone-flip (1)" d="M0,5.2c0,6.365,8.44,14.8,14.8,14.8a5.12,5.12,0,0,0,3.649-1.483l.833-.958a2.567,2.567,0,0,0-.042-3.607c-.025-.025-2.033-1.566-2.033-1.566a2.588,2.588,0,0,0-3.566,0l-1.216.975a10.66,10.66,0,0,1-5.774-5.79l.967-1.216a2.571,2.571,0,0,0,0-3.566S6.07.774,6.045.749A2.58,2.58,0,0,0,2.4.749l-.875.758A5.119,5.119,0,0,0,0,5.189Z" transform="translate(0.004 0.008)" fill="#fff"/>
</svg>
