<svg xmlns="http://www.w3.org/2000/svg" width="197.272" height="152.202"><path d="M195.67 91.074c-3.413-9.516-8.788-12.412-13.9-18.516-6.244-7.455-10.455-12.874-8.834-22.463 2.649-15.668 3.783-54.746-37.7-49.638-14.868 1.831-26.617 13.224-35.164 24.6-7.272 9.678-20.355 10.531-30.886 12.787a155.4 155.4 0 00-38.088 13.095C6.445 63.575-.919 81.739.087 104.982c.3 7.022 1.3 18.082 13.159 31.024 16.01 17.468 39.274 19.807 67.275 11.785 6.409-1.836 12.468-4.716 18.773-6.884a88.578 88.578 0 0120.26-4.4c16.082-1.555 32.752 1.257 48.18-3.544a50.831 50.831 0 0021.548-13.364c7.37-7.72 9.991-18.481 6.388-28.525z" fill="#fdefef"/><g transform="translate(50.958 45.573)"><path fill="#ea3f3f" d="M35.409 69.38h28.834v7.757H35.409z"/><rect width="99.956" height="71.912" rx="9.387" fill="#f95959"/><path d="M8.56 2.622h82.532A5.768 5.768 0 0196.86 8.39v50.854a5.768 5.768 0 01-5.768 5.768H8.56a5.768 5.768 0 01-5.768-5.768V8.39A5.768 5.768 0 018.56 2.622z" fill="#fdefef"/><path d="M27.905 76.462h43.841a4.89 4.89 0 014.89 4.89H23.015a4.89 4.89 0 014.89-4.89z" fill="#ce2222"/><rect width="65.82" height="44.242" rx="5.01" fill="#fff" transform="translate(25.256 6.931)" opacity=".35"/><g transform="translate(25.256 6.931)" opacity=".25" style="mix-blend-mode:multiply;isolation:isolate"><path fill="#fca70c" d="M6.255 32.318h2.867v7.198H6.255z"/><path fill="#b1affd" d="M12.716 26h2.867v13.517h-2.867z"/><path fill="#fca70c" d="M19.177 27.397h2.867v12.119h-2.867z"/><path fill="#b1affd" d="M25.638 20.555h2.867v18.961h-2.867z"/><g opacity=".15"><path opacity=".26" d="M12.716 26h1.316v13.517h-1.316z"/></g><g opacity=".15"><path opacity=".26" d="M6.255 32.318h1.316v7.198H6.255z"/></g><g opacity=".62"><path opacity=".26" d="M25.638 20.555h1.316v18.961h-1.316z"/></g><g opacity=".15"><path opacity=".26" d="M19.177 27.397h1.316v12.119h-1.316z"/></g><path d="M30.019 41.495H4.359v-27.32h.391v26.932h25.269z" fill="#d5dbda"/><path d="M6.998 28.948l-.261-.291 6.712-6.027 6.22 1.35 6.732-7.495.291.262-6.885 7.664-6.244-1.356z" fill="#d5dbda"/><path d="M27.217 17.853l-1.9-1.82 2.451-.656z" fill="#d5dbda"/><path fill="#b1affd" d="M32.452 31.808h1.969v1.969h-1.969z"/><path fill="#fca70c" d="M32.452 35.258h1.969v1.969h-1.969z"/><path fill="#efefef" d="M34.963 36.108h6.241v1.119h-6.241zm0-3.45h6.241v1.119h-6.241z"/><path fill="#b1affd" d="M44.031 31.808H46v1.969h-1.969z"/><path fill="#fca70c" d="M44.031 35.258H46v1.969h-1.969z"/><path fill="#efefef" d="M46.542 36.108h6.241v1.119h-6.241zm0-3.45h6.241v1.119h-6.241z"/><path fill="#f95959" d="M54.458 31.808h1.969v1.969h-1.969z"/><path fill="#fca70c" d="M54.458 35.258h1.969v1.969h-1.969z"/><path fill="#efefef" d="M56.969 36.108h4.107v1.119h-4.107zm0-3.45h4.107v1.119h-4.107zM32.82 12.995h28.257v.514H32.82zM4.362 6.69h56.715v1.176H4.362zm28.373 7.903h28.341v.514H32.735zm0-3.195h28.341v.514H32.735zm0 4.793h28.341v.514H32.735zm0 1.597h28.341v.514H32.735zm0 1.598h28.341v.514H32.735zm0 1.598h28.341v.514H32.735zm0 1.597h28.341v.514H32.735zm0 1.598h28.341v.514H32.735zm3.47 1.597h24.872v.514H36.205z"/><path d="M62.934 0H2.884A2.884 2.884 0 000 2.884v2.524h65.82V2.884A2.884 2.884 0 0062.934 0z" fill="#f95959"/><path d="M57.354 2.803a.832.832 0 11-.831-.831.831.831 0 01.831.831z" fill="#cfcfff"/><circle cx=".832" cy=".832" r=".832" transform="translate(59.081 1.972)" fill="#fff"/><circle cx=".832" cy=".832" r=".832" transform="translate(62.47 1.972)" fill="#fff"/></g><rect width="65.82" height="44.242" rx="5.01" fill="#f95959" opacity=".55" style="mix-blend-mode:multiply;isolation:isolate" transform="translate(7.772 16.718)"/><rect width="65.82" height="44.242" rx="5.01" fill="#fff" transform="translate(9.107 14.995)"/><path fill="#fca70c" d="M15.362 47.313h2.867v7.198h-2.867z"/><path fill="#f95959" d="M21.823 40.995h2.867v13.517h-2.867z"/><path fill="#fca70c" d="M28.284 42.392h2.867v12.119h-2.867z"/><path fill="#f95959" d="M34.745 35.55h2.867v18.961h-2.867z"/><g opacity=".15"><path opacity=".26" d="M21.823 40.995h1.316v13.517h-1.316z"/></g><g opacity=".15"><path opacity=".26" d="M15.362 47.313h1.316v7.198h-1.316z"/></g><g opacity=".62"><path opacity=".26" d="M34.745 35.55h1.316v18.961h-1.316z"/></g><g opacity=".15"><path opacity=".26" d="M28.284 42.392H29.6v12.119h-1.316z"/></g><path d="M39.128 56.493h-25.66V31.611h.391v24.491h25.269z" fill="#d5dbda"/><path d="M16.104 43.943l-.261-.291 6.712-6.027 6.217 1.351 6.732-7.495.291.262-6.885 7.664-6.244-1.356z" fill="#d5dbda"/><path d="M36.324 32.849l-1.9-1.82 2.451-.656z" fill="#d5dbda"/><path fill="#f95959" d="M41.559 46.803h1.969v1.969h-1.969z"/><path fill="#fca70c" d="M41.559 50.253h1.969v1.969h-1.969z"/><path fill="#efefef" d="M44.07 51.103h6.241v1.119H44.07zm0-3.45h6.241v1.119H44.07z"/><path fill="#f95959" d="M53.138 46.803h1.969v1.969h-1.969z"/><path fill="#fca70c" d="M53.138 50.253h1.969v1.969h-1.969z"/><path fill="#efefef" d="M55.649 51.103h6.241v1.119h-6.241zm0-3.45h6.241v1.119h-6.241z"/><path fill="#f95959" d="M63.565 46.803h1.969v1.969h-1.969z"/><path fill="#fca70c" d="M63.565 50.253h1.969v1.969h-1.969z"/><path fill="#efefef" d="M66.076 51.103h4.107v1.119h-4.107zm0-3.45h4.107v1.119h-4.107zM41.927 27.99h28.257v.514H41.927zm-28.458-6.305h56.715v1.176H13.469zm28.373 7.903h28.341v.514H41.842zm0-3.195h28.341v.514H41.842zm0 4.793h28.341v.514H41.842zm0 1.597h28.341v.514H41.842zm0 1.598h28.341v.514H41.842zm0 1.598h28.341v.514H41.842zm0 1.597h28.341v.514H41.842zm0 1.598h28.341v.514H41.842zm3.47 1.597h24.872v.514H45.312z"/><path d="M72.044 14.995h-60.05a2.884 2.884 0 00-2.884 2.884v2.524h65.82v-2.524a2.884 2.884 0 00-2.886-2.884z" fill="#f95959"/><path d="M66.462 17.798a.832.832 0 11-.832-.831.832.832 0 01.832.831zm3.39 0a.832.832 0 11-.832-.831.832.832 0 01.832.831z" fill="#fdf4f4"/><path d="M73.24 17.798a.832.832 0 11-.831-.831.832.832 0 01.831.831z" fill="#fdefef"/></g><g transform="translate(146.414 88.201)"><path d="M6.949 0h24.964a6.949 6.949 0 016.949 6.949v31.044a6.949 6.949 0 01-6.949 6.95H6.949A6.949 6.949 0 010 37.993V6.949A6.949 6.949 0 016.949 0z" fill="#ffcece"/><g transform="translate(3.595 4.704)" fill="#fff"><rect width="32.867" height="9.231" rx="1.773"/><rect width="8.451" height="5.86" rx="1.773" transform="translate(0 12.505)"/><rect width="8.451" height="5.86" rx="1.773" transform="translate(12.208 12.505)"/><rect width="8.451" height="5.86" rx="1.773" transform="translate(24.416 12.505)"/><rect width="8.451" height="5.86" rx="1.773" transform="translate(0 21.925)"/><rect width="8.451" height="5.86" rx="1.773" transform="translate(12.208 21.925)"/><rect width="8.451" height="5.86" rx="1.773" transform="translate(0 31.345)"/><rect width="8.451" height="5.86" rx="1.773" transform="translate(12.208 31.345)"/><rect width="8.451" height="15.28" rx="1.773" transform="translate(24.416 21.925)"/></g><g transform="translate(2.998 4.107)" opacity=".45" fill="#f95959"><path d="M0 1.021A1.021 1.021 0 011.021-.001h30.826a1.021 1.021 0 011.021 1.021v7.189a1.02 1.02 0 01-1.021 1.021H1.021"/><rect width="8.451" height="5.86" rx="1.773" transform="translate(0 12.505)"/><rect width="8.451" height="5.86" rx="1.773" transform="translate(12.208 12.505)"/><rect width="8.451" height="5.86" rx="1.773" transform="translate(24.416 12.505)"/><rect width="8.451" height="5.86" rx="1.773" transform="translate(0 21.925)"/><rect width="8.451" height="5.86" rx="1.773" transform="translate(12.208 21.925)"/><rect width="8.451" height="5.86" rx="1.773" transform="translate(0 31.344)"/><rect width="8.451" height="5.86" rx="1.773" transform="translate(12.208 31.344)"/></g><rect width="8.451" height="15.28" rx="1.773" transform="translate(27.414 26.031)" fill="#ffc864"/><path d="M28.011 40.887V27.645a1.02 1.02 0 011.021-1.021h6.41a1.018 1.018 0 01.356.067 1.019 1.019 0 00-.953-.665h-6.41a1.021 1.021 0 00-1.021 1.021v13.238a1.019 1.019 0 00.664.953 1.014 1.014 0 01-.067-.351z" fill="#f9c110"/></g><path d="M39.783 61.232c.772 1.333.105 3.155.884 4.484.312.532.84.95.99 1.549a1.35 1.35 0 01-1.941 1.52 1.651 1.651 0 00-.3-.149c-.385-.113-.734.229-1.065.455a1.625 1.625 0 01-1.4.248 2.08 2.08 0 01-1.167-1.4 8.646 8.646 0 01.353-5.191 2.933 2.933 0 011.464-2.083" fill="#2b4061"/><path d="M57.718 75.422c.013.185.3.345.107.735a2.784 2.784 0 01-3.288 1.522c-.068.024-8.63 4.974-9.29 4.974s-5.153-4.252-6.623-9.514c-.351-1.256-.214-2.732.962-3.368a2.782 2.782 0 011.617 1.439c.973 1.838 3.889 7.922 4.535 8.152.805-.536 4.726-1.7 7.9-3.05a2.148 2.148 0 001.231-1.029 10.237 10.237 0 011.319-2.057c.17-.174 2.049-1.18 2.049-.85 0 .191-.551.7-1.271 1.154a1.722 1.722 0 00-.611.851c-.123.242 1.346-.2 1.469.306.022.07-.112.635-.106.735z" fill="#ffb9b0"/><path d="M39.243 69.613a3.857 3.857 0 012.557 1.983 8 8 0 01.348.8c.456 1.161 1.083 2.211 1.539 3.371a6.83 6.83 0 01-2.014.971 4.3 4.3 0 01-1.874.252.947.947 0 01-.315-.07 1.039 1.039 0 01-.328-.282q-.293-.336-.57-.685a1.881 1.881 0 01-.383-.655 1.989 1.989 0 01.09-1.021" fill="#f95959"/><path d="M40.364 72.782a.4.4 0 00-.147-.125.266.266 0 00-.308.136.706.706 0 00-.064.357 4.88 4.88 0 00.219 1.389l-.146 2.447v.005a4.294 4.294 0 001.753-.256c.265-.1.55-.2.838-.317a8.865 8.865 0 00-2.145-3.636z" fill="#7762ef" opacity=".35" style="mix-blend-mode:multiply;isolation:isolate"/><path d="M36.569 67.183s-.033 1.532.2 1.633a6 6 0 00.99.306l.016 3.171-4.228-.637-2.906-1.619s3.023-1 3.049-1.3-.166-2-.166-2" fill="#ffb9b0"/><g fill="#ffb9b0"><path d="M30.074 113.066v.012c-1.157 5.484-.606 13.018-.864 17.146.06.017 1.572.206 1.572.206s3.577-17.4 4.227-20.733a4.723 4.723 0 00.082-.645c.156-2.508-2.1-2.635-3.377-.562a8.682 8.682 0 00-.583 1.119c-.072.164-.139.329-.208.506v.006a16.345 16.345 0 00-.561 1.751l-.013.063c-.053.176-.1.353-.139.532l-.009.04c-.048.183-.087.368-.127.559z"/><path d="M36.847 93.384c-.043.454-.284 2.613-.575 5.16-.248 2.141-.52 4.555-.732 6.467a198.661 198.661 0 00-.321 3.115 6.979 6.979 0 01-.127.926v.012c-.545 2.5-2.274 2.65-3.327 2.069a2.1 2.1 0 01-.4-.272 1.344 1.344 0 01-.448-.738v-.006a38.825 38.825 0 01-.193-2.051v-.012c-.006-.006-.006-.006-.006-.012l-.006-.018c-.127-1.627-.236-3.72-.333-5.759-.115-2.5-.188-4.918-.206-6.279-.006-.079-.006-.151-.012-.224-.018-4.174 3.817-6.848 6.2-5.553a.605.605 0 01.085.042.915.915 0 00.091.055c.272.181.363.8.369 1.518.013.519-.023 1.088-.059 1.56z"/><path d="M31.01 109.133l-.292-1.093v.013a17.478 17.478 0 01-.363 3.817l-.013.063c-.042.173-.086.356-.139.532l-.009.04a2.977 2.977 0 00-.124.56v.012c0 .5 1.052-1.706 1.294-2.22.03-.066.048-.1.048-.1l-.286-1.147z"/></g><g fill="#ffb9b0"><path d="M39.272 114.115v.012c-.109 5.742 1.664 12.493 2.133 16.664.057 0 1.448-.186 1.448-.186s.265-17.591.283-21.067a5.265 5.265 0 00-.035-.663c-.285-2.532-2.34-2.1-3.133.279a10.285 10.285 0 00-.334 1.258c-.036.181-.069.362-.1.555v.006c-.1.591-.166 1.22-.207 1.88v.067c-.018.188-.026.375-.035.563v.043c-.009.194-.016.388-.02.589z"/><path d="M40.465 111.772a1.493 1.493 0 01-.4-.176 1.15 1.15 0 01-.528-.622v-.006a40.378 40.378 0 01-.53-2v-.013l-.009-.021a218.504 218.504 0 01-1.276-5.639c-.527-2.462-1-4.846-1.25-6.2a95.558 95.558 0 01-.246-1.131c-.736-4.194 2.536-6.927 4.913-6.128l.093.032c.478.192.611 1.873.718 3.01s.915 12.914 1.117 15.043a8.507 8.507 0 01.041.954c-.061 2.634-1.596 3.211-2.643 2.897z"/><path d="M39.447 109.97l-.448-1.015v.013a19.523 19.523 0 01.322 3.886v.067c-.009.182-.017.376-.035.563v.043a3.461 3.461 0 00-.016.588v.012c.081.494.657-1.958.788-2.53l.026-.115-.452-1.07z"/></g><path d="M32.158 85.327s-3.079 3.911-2.763 7.841c.131 1.635.334 3.077.52 4.723.027.237.4 3.693.292 3.7a20.264 20.264 0 0012.472-.608 39.358 39.358 0 00-2.82-16.131 53.346 53.346 0 01-7.701.475z" fill="#3e4869"/><path d="M41.8 76.298a4.116 4.116 0 01-1.475 2.747 33.4 33.4 0 00-.464 4.326c-.047.864.322 1.407 0 1.478-1.231 1.074-5.666 1.943-7.7.478.213-1.806-.6-5.784-1.142-7.807-.085-.311-.16-.575-.228-.777-.508-1.536-1.426-6.464-.747-6.678.135-.043.345-.1.589-.172 1.063-.321 2.634-.872 2.634-.872s.922 2.726 3.318 3.056c1.308-.539 1.193-2.193 1.177-2.953.428.118.616.235 1.942.628.371.536.051 1.654.651 3.321.149.413 1.474 1.86 1.445 3.225z" fill="#f95959"/><path d="M39.628 60.925a15.414 15.414 0 01-.263 4.514 3.685 3.685 0 01-3.2 2.208c-3.537 0-4.171-4.8-4.153-5.036a52.308 52.308 0 015.217-2.249z" fill="#ffb9b0"/><path d="M46.362 132.452a23.345 23.345 0 01-3.156-.032c-.456.078-1.627.375-2.065-.019s-.368-1.784.136-1.969a1.809 1.809 0 00.327.079 3.443 3.443 0 001.49-.122 7.917 7.917 0 002.082.786 7.074 7.074 0 011.387.421c.471.215.508.73-.201.856zm-13.587.554A17.185 17.185 0 0130.164 132c-.455-.081-1.6-.3-1.723-.775-.089-.349.257-1.8.794-1.807a1.835 1.835 0 00.281.185 3.45 3.45 0 001.444.389 7.916 7.916 0 001.694 1.443 7.071 7.071 0 011.163.865c.367.361-.333.826-1.042.706z" fill="#3e4869"/><path d="M14.391 74.184l1.158-1.378 7.067 6.319s3.451-4.593 4.4-6.027c1.044-1.577 1.984-2.926 3.51-3.189.352.217-.119 5.88-.3 6.017-2.132 1.6-6.281 6.74-7.6 7.008-1.527.309-8.235-8.75-8.235-8.75z" fill="#ffb9b0"/><path d="M31.048 69.658a4.222 4.222 0 00-2.064.53 59.677 59.677 0 00-3.587 5.213 2.09 2.09 0 00.78 1.633 4.33 4.33 0 002.136.924s1.489-1.482 2.328-2.156c.523-.42.574.619.574.619l2.625-2.563z" fill="#f95959"/><path d="M30.176 69.716c-.079-.042-.156-.088-.231-.132a1.945 1.945 0 01-.948-.957 3.17 3.17 0 01-.02-2.326 9.253 9.253 0 01.971-1.113 3.438 3.438 0 00.572-1.934 12.758 12.758 0 01.138-2.041 4.983 4.983 0 011.449-2.963c1.409-1.178 4.232-1.876 5.768-.562.279.239.334.431.711.467a2.774 2.774 0 011.289.376c.5.291 1.115.7 1.044 1.363a2.37 2.37 0 01-.961 1.4 1.164 1.164 0 01-.543.121c-.6.012-1.1-.378-1.683-.315a1.119 1.119 0 00-.737.409c-.212.261-.183.626-.43.87-.4.392-1.011.359-1.481.614a.5.5 0 00-.2.167.534.534 0 00-.051.252l-.027.742c-.233-.1-.257-.434-.45-.6a.534.534 0 00-.674.043 1.13 1.13 0 00-.325.646 1.857 1.857 0 00.131.886c.154.5.586.958.935.625.253.372-.024.994-.033 1.415-.007.334 0 1 .311 1.215.287.2.742.049.76.569a1 1 0 01-.933.906 3.5 3.5 0 01-1.4-.243 2.189 2.189 0 00-1.4-.069 4.232 4.232 0 01-.786.353 1.231 1.231 0 01-.766-.184z" fill="#2b4061"/><path d="M17.335 74.412a10.777 10.777 0 01-1.774-1.7c-.113-.365-.138-.755-.275-1.111a2.079 2.079 0 00-1.152-1.147c-.416-.172-.212-.313-.659-.226-.673.13-.992.79-1.261 1.306-1.147 2.2 1.995 2.615 2.105 2.619.229.009 1.4 1.334 1.4 1.334" fill="#ffb9b0"/><path d="M12.332 72.3a2.291 2.291 0 01.4-1.711 3.675 3.675 0 01.408-.44.564.564 0 01.246-.162.775.775 0 01.532.12.969.969 0 01.436.433.578.578 0 01-.32.7.12.12 0 00-.059.058c-.013.04.014.09.04.135a.989.989 0 01.169.568.333.333 0 01-.391.292c-.086-.014-.2-.047-.229.018a.14.14 0 000 .074.608.608 0 01-.132.48.168.168 0 01-.105.066.278.278 0 01-.111-.015 1.5 1.5 0 01-.389-.173" fill="#ffb9b0"/><path d="M15.55 72.807a8.722 8.722 0 01-.136-.893 2.032 2.032 0 00-.961-1.671.243.243 0 00-.156-.045.172.172 0 00-.127.15.462.462 0 00.031.206c.067.211.367.608.275.826a2.471 2.471 0 00-.237 1.036c.01.316.158.829.532.881m106.976-46.318s-1.341-.946-1.389-1.344a9.189 9.189 0 00-1.282-2.329 7.208 7.208 0 00-2.207-.914c-.336-.048-2.26.116-2.021.378s1.485.167 1.725.311l.24.143s-.24.325-.144.522-.411.5-.219.835-.078.313.094.663c.283.577 1.008.9 1.2.741.144.342.694 1.04 1.209.992s1.767 1.125 1.767 1.125m21.478-7.857c.045.9-.018 2.47.239 2.7s1.09.2 1.09.2-2.976 3.763-3.242 3.556-3.786-3.075-3-3.224 1.565-.116 1.543-.526l-.067-1.229" fill="#ffb9b0"/><path d="M145.592 40.342s-5.807.659-7.143.687-1.271-.671-1.271-.671a53.12 53.12 0 00-.594-6.114c-.258-1.1-.372-1.5-.6-2.545-.5-2.317-.478-2.76-1.007-5.62l3.468-2.788a1.83 1.83 0 001.813 1.085 2.644 2.644 0 002.548-1.336l4.731 3.141.444 7.64-.566 6.292" fill="#ffc864"/><path d="M142.264 19.429a10.088 10.088 0 01-.409 1.335 1.513 1.513 0 01-1.6 1.1l-1.778.042a2.03 2.03 0 01-1.388-.293 2.073 2.073 0 01-.453-1.288q-.155-.841-.252-1.692a24.879 24.879 0 01-.157-3.345 2.387 2.387 0 01.04-.458.331.331 0 01.076-.168.373.373 0 01.214-.082 18.248 18.248 0 013.361-.215 3.817 3.817 0 012.263.6 4.264 4.264 0 011.2 2.036c.043.121.075.282-.029.356" fill="#ffb9b0"/><path d="M129.239 61.056a12.652 12.652 0 00.347 1.55c.154.394 1.449.031 1.535-.225a11.885 11.885 0 00-.408-2.133" fill="#ed9c80"/><path d="M131.571 62.708c.112.425.254 1.243.254 1.243l-1.3.564-.212-.2a2.4 2.4 0 01-.719.573 5.381 5.381 0 01-1.253.348 3.06 3.06 0 01-2.03-.248c-.28-.655 1.22-.831 1.517-.909a1.987 1.987 0 001.421-1.424c.066-.343-.019-.4.173-.393a.457.457 0 01.324.153.818.818 0 00.92.214.979.979 0 00.459-.382.565.565 0 01.446.461zm3.391-16.748a21.944 21.944 0 01-6.611.157 24.46 24.46 0 011.254 3.026 85.436 85.436 0 011.412 12.1s-.423.813-1.781.194c-2.028-5.008-5.568-15.157-5.535-17.359.042-2.8 7.038-3.48 12.166-4.171" fill="#3e4869"/><path d="M143.899 40.348c1.612 1.177-8.937 5.612-8.937 5.612a17.567 17.567 0 01-3.457.33 2.521 2.521 0 01-.257-.654c-.062-.306-.029-.625-.082-.933a2.169 2.169 0 00-1.054-1.421 4.744 4.744 0 00-1.724-.558 23.119 23.119 0 00-3.917-.069c3.171-2.337 9.658-2.643 12.68-2.835.577.953 6.517.359 6.748.528z" fill="#2d375a"/><path d="M132.583 63.721a12.68 12.68 0 00.072 1.587c.083.416 1.422.281 1.55.045a11.874 11.874 0 00-.032-2.171" fill="#ed9c80"/><path d="M134.593 65.752c.037.439.034 1.268.034 1.268l-1.373.331-.175-.234a2.392 2.392 0 01-.806.44 5.383 5.383 0 01-1.3.125 3.058 3.058 0 01-1.956-.6c-.163-.694 1.345-.607 1.652-.632a1.988 1.988 0 001.646-1.156c.125-.326.052-.4.239-.357a.457.457 0 01.292.206.817.817 0 00.869.37.979.979 0 00.518-.3.565.565 0 01.36.539zm12.825-25.637a65.339 65.339 0 01-7.147.228c-.913 0-7.817 1.3-8.477 2.465-1.086 1.924.709 13.171.542 21.223a2.2 2.2 0 002.292.041c.364-3.955 2.7-13.286 1.089-17.642 3.806.5 6.877 1.007 10.337-.14a2.761 2.761 0 001.78-1.887 6.62 6.62 0 00-.416-4.288z" fill="#3e4869"/><path d="M138.449 23.292s-.83.045-.991.059a7.623 7.623 0 00-2.051.388 8.37 8.37 0 00-2.37 1.908c-.737.659-4.559 4.3-5.271 4.434s-6.97-4.153-6.97-4.153l-1.527 1.528s6.789 6.273 8.813 6.284c.983.005 6.4-2.848 8.136-3.957z" fill="#ffc864"/><path d="M128.098 32.53c-1.4.079-7.791-4.806-8.533-5.376l-.3.3s6.789 6.273 8.813 6.284c.819 0 4.717-1.976 7-3.278l.591-.343-.354-2.109s-5.735 4.442-7.217 4.522z" fill="#ce4a30" opacity=".25" style="mix-blend-mode:multiply;isolation:isolate"/><path d="M121.583 41.374h15.541l-2.787-9.084a1.194 1.194 0 00-1.141-.844h-13.61a.774.774 0 00-.74 1z" fill="#ea3f3f"/><path d="M121.388 41.374h15.306l-2.786-9.084a1.194 1.194 0 00-1.142-.844h-13.61a.775.775 0 00-.741 1l2.669 8.7a.316.316 0 00.304.228z" fill="#f95959"/><path d="M145.284 27.67a60.849 60.849 0 00-1.129 8.735c-2.715 1.054-3.821 2.623-6.479 3.806 0 0-2.1-.348-2.318.443-.127.457 2.456.82 2.456.82 2.463.012 8.957-1.788 9.4-1.909s1.719-8.377 1.771-12.857a2.816 2.816 0 00-.413-1.823 2.389 2.389 0 00-.8-.593 11.172 11.172 0 00-4.959-1.251" fill="#ce4a30" opacity=".25" style="mix-blend-mode:multiply;isolation:isolate"/><path d="M138.044 40.753a1.555 1.555 0 00-1.293-.409 9.488 9.488 0 00-1.039.083c-.157.021-.337.058-.353.228s.761 0 1.169.117a20.537 20.537 0 01-2.4.066.689.689 0 00-.277.028.23.23 0 00-.155.211.287.287 0 00.11.183 1.631 1.631 0 00.827.333 6.366 6.366 0 003.653-.322" fill="#ffb9b0"/><path d="M145.116 27.605c-.064 3.738-.329 5.449-.257 9.188-1.877.4-4.475 2.526-7.132 3.709a1.4 1.4 0 00.088.972c.2.074 8.963-2.059 9.66-2.7.627-.578 1.456-7.585 1.508-12.065a2.816 2.816 0 00-.413-1.823 2.389 2.389 0 00-.8-.593 11.173 11.173 0 00-4.959-1.251" fill="#ffc864"/><g transform="translate(124.878 35.119)" fill="#ea3f3f"><path d="M4.41 1.443c.055.8-.886 1.442-2.1 1.442S.061 2.24.01 1.443.896 0 2.11 0s2.244.643 2.3 1.443z" stroke="#ce2222" stroke-miterlimit="10" opacity=".45"/><ellipse cx=".802" cy="1.401" rx=".802" ry="1.401" transform="rotate(-87.77 1.525 .692)"/></g><path d="M139.527 17.039c-.029-.14-.34-.168-.652-.128a4.967 4.967 0 00-1.313.277c-.171.133-.161.229-.252.239s-.1-.083-.294-.17a2.639 2.639 0 00-.99.013c-.311.039-.608.108-.6.251a.8.8 0 00.125.431c.063.04.063.033.309.6a.6.6 0 00.751.408c.513-.112.545-.7.585-.94s.077-.28.154-.29.131.015.23.242.17.75.7.779c.688.039.986-.2 1.082-.638.129-.6.1-.6.151-.655a3.258 3.258 0 01.514.044l-.011-.178a3.89 3.89 0 01-.489-.285zm-2.5 1.2a.6.6 0 01-.507.627c-.315.04-.46-.128-.631-.532a1.045 1.045 0 01-.1-.729c.054-.1.224-.093.615-.118s.523-.033.586.139a2.122 2.122 0 01.038.617zm2.243-.33c-.065.433-.224.642-.656.694-.612.074-.731-.168-.821-.46a2.13 2.13 0 01-.115-.6c.019-.183.147-.207.533-.28s.9-.163.977-.082a1.042 1.042 0 01.083.732z" fill="#483a99"/><path d="M143.68 16.084a6.629 6.629 0 00-.171-.922 2.937 2.937 0 00-1.436-1.882 4.591 4.591 0 00-3.248-.324c-.595.166-.815.48-1.121.471a3.366 3.366 0 01-.832-.274c-2.324-.835-1.934 1.44-1.687 2.064.11.276.637.478.707.592a7.088 7.088 0 01.107.926.491.491 0 00.29.342s.013-.732.024-.831a.923.923 0 01.344-.686 2.133 2.133 0 01.836-.235 6.366 6.366 0 011.71.283 3.438 3.438 0 01.668 1.722c.056.233.116.39.211.386.072-.688.311-.705.723-.47a1.2 1.2 0 01.35.93.982.982 0 01-.694 1.015c-.164.035.331.973.56 1.208a1.254 1.254 0 00.242.213 1.111 1.111 0 00.28.1l.332.09a.87.87 0 00.457.039c.245-.069.375-.329.485-.559.181-.376.39-.741.539-1.133a6.728 6.728 0 00.324-3.065z" fill="#2b4061"/><path d="M185.556 50.522h-29.415l3.523-2.606V35.197a1.922 1.922 0 011.922-1.922h23.971a1.922 1.922 0 011.922 1.922v13.407a1.922 1.922 0 01-1.923 1.918z" fill="#f95959"/><g transform="translate(161.979 35.756)"><path fill="#fff" opacity=".45" d="M9.5 0h13.443v1.286H9.5zm0 1.922h13.443v1.286H9.5zm0 1.921h13.443v1.286H9.5zm0 1.873h13.443v1.286H9.5zm0 2.239h9.375v1.286H9.5z"/><rect width="8.444" height="9.874" rx="3.385" fill="#fdefef"/><path fill="#fdefef" opacity=".45" d="M0 11.103h8.444v1.06H0z"/></g><path d="M76.282 32.757h37.478l-4.488-3.32v-20.5a2.448 2.448 0 00-2.449-2.448h-30.54a2.448 2.448 0 00-2.449 2.448v21.372a2.449 2.449 0 002.448 2.448z" fill="#f95959"/><path d="M94.216 11.925H77.089v-1.639h17.127zm0 2.448H77.089v-1.639h17.127zm0 2.448H77.089v-1.639h17.127zm0 2.386H77.089v-1.639h17.127zm0 2.385H77.089v-1.639h17.127zm0 4.335H77.089v-1.639h17.127zm12.105 2.581H77.089v-1.639h29.232z" opacity=".45" fill="#fff"/><g transform="translate(95.562 10.286)"><rect width="10.759" height="12.58" rx="4.313" transform="rotate(180 5.38 6.29)" fill="#fdefef"/><path fill="#fff" opacity=".45" d="M10.759 15.497H0v-1.351h10.759z"/></g><g transform="translate(141.511 57.433)"><path d="M12.587 79.046a4.149 4.149 0 01-1.724 1.305c-.919.411-2.87.6-1.786.966a6.5 6.5 0 002.986.04 12.9 12.9 0 012.014-.122c1-.006 1-.068.869-1.19-.184-1.544-1.911-1.872-2.359-.999zm18.031-.558c-.055.311.387 1.256-.4 1.949s-2.588 1.422-1.4 1.45a6.935 6.935 0 002.94-.547c.605-.3.122-.77.873-1.007.99-.313.785-1.04.271-1.49-.66-1.487-2.106-1.366-2.284-.355z" fill="#3e4869"/><path d="M26.825 47.048s2.372-6.973-4.357-12.717a25.584 25.584 0 01-6.494 1.609 16.027 16.027 0 01-3.429-.073s-.192 6.195-.2 9.534zM11.8 58.63c-.13-3.118 3.25-2.709 4.5-.38 2.578 4.816-.951 15.908-1.417 21.164a2.677 2.677 0 01-1.785.111 1.246 1.246 0 01-.519-.573c.073-6.448-.639-16.988-.779-20.322z" fill="#f95959"/><path d="M16.18 59.102c-.389 1.273-4.7 2.612-4.354-2.022.155-2.055.568-13.4.648-14.5s.263-2.693.792-2.893c2.644-1 7.321 2.459 6.625 6.567-.465 2.749-2.905 10.208-3.711 12.848zm6.791 1.77c-1.043-2.941 2.346-3.461 4.269-1.649 4.5 4.243 4.676 14.24 5.78 19.4a3.948 3.948 0 01-1.968.564.7.7 0 01-.536-.275c-1.83-6.183-6.429-14.896-7.545-18.04z" fill="#f95959"/><path d="M27.424 59.912c.118 1.326-3.479 4.066-4.895-.36-.628-1.963-3.316-13.563-3.653-14.606s-.245-3.2.17-3.582c2.076-1.918 6.761-.231 7.659 3.837.601 2.719.475 11.962.719 14.711z" fill="#f95959"/><path d="M8.898 9.125c.123-.13.245-.259.355-.4.853-1.09.977-2.057 1.767-3.322a9.873 9.873 0 01.574-1.1 4.593 4.593 0 011.282-1.051c.369-.193.052.62.052.62s.313-.454.616-.422c.118.013.139.706.14.825a5.825 5.825 0 01-.647 2.754 1.417 1.417 0 00-.221.626 1.4 1.4 0 00.744-.366.9.9 0 01.778-.227 2.123 2.123 0 01-.15.325 3.408 3.408 0 01-1.362 1.612c-.387.183-.834.216-1.212.417-.682.363-1.014 1.2-1.706 1.545" fill="#f2a181"/><rect width="2.947" height="5.425" rx=".646" transform="rotate(22.7 -2.065 33.228)" fill="#5e5dbb"/><path d="M12.847 3.762l2.28.953-1.87 4.468-2.279-.953z" fill="#f4cbcb"/><path d="M15.126 13.536a16.111 16.111 0 00-3.293.556 12.3 12.3 0 00-3.958 2.237 34.688 34.688 0 003.325-6.234S9.086 8.359 8.843 8.77-.272 19.563.007 21.243a2.111 2.111 0 002.049 1.347 33.194 33.194 0 008.5-2c1.346-.44 1.761.509 1.761.509" fill="#3e4869"/><path d="M7.875 16.329a12.386 12.386 0 01-1.453 2.4c-.335.147.815-.469 1.444-1.119a13.334 13.334 0 001.49-2.356 12.939 12.939 0 00-1.481 1.075z" fill="#2d375a"/><path d="M11.38 5.417a.509.509 0 01.158.355 2.8 2.8 0 01-.043 1.493 2.154 2.154 0 01-.6.764 4.7 4.7 0 01-.915.625" fill="#f2a181"/><path d="M15.18 1.67c-.593.171-.906.936-1.108 1.46a8.122 8.122 0 00-.443 1.969 2.7 2.7 0 00.1 1.386 2.911 2.911 0 00.387.6 1.274 1.274 0 00.279.294.43.43 0 00.386.066c.185-.071.259-.288.312-.478a12.6 12.6 0 011.417-3.585" fill="#1a2f50"/><path d="M14.523 5.61c-.012-.4-.429-.655-.79-.244a2.527 2.527 0 00-.4 1.46c-.021.57.421.682.785.762" fill="#f2a181"/><path d="M10.564 15.58a8.437 8.437 0 016.156-2.124c2.137.067 7.959.42 8.61 1.85a44.937 44.937 0 01.2 10.8c-.366 1.941-1.3 6.749-1.3 7.91s.623 1.658.333 1.995c-.652.755-5.106 1.071-7.2 1.071-1.861 0-5.03-.5-5.19-1.093-.238-.885.363-.852.445-1.78s.316-6.951-.025-7.937c-.617-1.78-.916-4.682-1.405-6-.374-.999-1.355-3.853-.624-4.692z" fill="#3e4869"/><path d="M23.896 21.636c.222.462 1.728 2.884 1.728 2.884l.061.29a11.98 11.98 0 01-.153 1.294c-.366 1.941-1.3 6.749-1.3 7.91s.6 1.637.333 1.995c-.514.7-8.913 2.261-8.5.318.037-.176 7.05-5.526 7.087-5.705.323-1.535.6-2.642.747-3.761.338-2.693-.221-5.687-.003-5.225z" fill="#2d375a"/><path d="M15.029 10.778a22.994 22.994 0 01-.117 2.534 3.842 3.842 0 01-.58.326s.343 2.116.873 1.959 4.033-1.926 4.033-1.926-.5-.2-.5-.4.471-4.026.471-4.026" fill="#ffbe9d"/><path d="M17.461 1.933c-.511.139-1.855-.139-2.227.417a12.657 12.657 0 00-.835 2.273c-.277.739-.458 1.528-.659 2.29-.263.992-.695 2.81.276 3.64a1.292 1.292 0 00.749.381c.46.083.917.177 1.377.26a4.623 4.623 0 002.209.047c.945-.307 1.463-1.607 1.707-2.489l1.391-5.057z" fill="#ffbe9d"/><path d="M14.943 16.546s-.2 9.5-.592 15.282l1.4 1.927.96-2.413a73.479 73.479 0 00-.908-14.73zm-.322-.834l.033.131a2.661 2.661 0 00.289.7l.858.066s.583-.306.66-.634-.957-.866-.957-.866l-.125.049a1.872 1.872 0 00-.747.537z" fill="#f18989"/><path d="M18.8 12.68a3.58 3.58 0 01.978.991 10.14 10.14 0 01-2.535 3.617 4.956 4.956 0 00-1.74-2.175s2.991-.533 3.297-2.433z" fill="#fff"/><path d="M15.504 15.113a3.681 3.681 0 00-1.705 1.62 8.151 8.151 0 01.231-3.008s.7-.9.945-.917a4.722 4.722 0 00.529 2.305z" fill="#fff"/><path d="M15.638 36.326a3.162 3.162 0 00-2.053 1.146.221.221 0 00-.089.177c.014.085.113.122.2.136.493.079.573-.236 1.034-.428.311-.13.621-.265.93-.4" fill="#f2a181"/><path d="M12.032 28.583l3.764 12.063a.432.432 0 01-.4.605l-7.853.689a.728.728 0 01-.658-.507L2.838 29.554c-.1-.324.366-.786.682-.789l7.853-.689a.728.728 0 01.659.507z" fill="#e9e6ff"/><path d="M11.776 28.902l3.711 11.877a.432.432 0 01-.4.606l-7.853.689a.728.728 0 01-.658-.508L2.865 29.69a.432.432 0 01.4-.606l7.853-.689a.729.729 0 01.658.507z" fill="#f18989"/><g fill="#fff"><path d="M5.501 28.516l.279 1.041 3.673-.324-.3-1.036z"/><path d="M6.196 27.549l.368 1.178 1.754-.162-.368-1.178a1.192 1.192 0 00-1.163-.838.717.717 0 00-.591 1zm.389-.024a.4.4 0 01.331-.561.67.67 0 01.653.47.4.4 0 01-.331.561.669.669 0 01-.653-.47z"/></g><path d="M18.631 35.484c-.824.172-3.019.827-3.25.935a9.721 9.721 0 00-1.4 1.035c-.826.829-.4 1.215-.729 2.34a.654.654 0 00-.02.178c0 .117.158.218.318.109.086.145.341.055.465-.1 0 .112.155.183.408.043.136-.075.112-.068.428-.35a3.317 3.317 0 01.893-.544 6.5 6.5 0 00.872-.4c.333-.219.928-.272 1.222-1.224a.949.949 0 01.458-.458l1.343-.842" fill="#ffbe9d"/><path d="M23.693 20.032c.349 1.246 1.8 9.878 1.8 9.878l-8.185 5.928.681 1.79s9.794-3.288 10.565-5.536.736-12.4-1.984-15.964a6.206 6.206 0 00-2.6-1.706" fill="#3e4869"/><path d="M15.297 38.592a5.259 5.259 0 00-.572.44c-.234.246-.409.519-.66.814m.782-1.796a2.958 2.958 0 00-.675.818 11.042 11.042 0 01-.537 1.037m.694-2.294c-.079.127-.416.444-.484.577a5.215 5.215 0 00-.466 1.333" fill="none" stroke="#f2a181" stroke-miterlimit="10" stroke-width=".25"/><path d="M20.581 7.876c-.321-.188-.567-.386-.776-.078-.11.163-.178.388-.367.444a.379.379 0 01-.429-.3 1.1 1.1 0 01.071-.577l.386-1.244a1.874 1.874 0 00.09-1.246 1.369 1.369 0 00-.393-.5 4.158 4.158 0 00-1.91-.817 20.3 20.3 0 01-2.056-.423 2.227 2.227 0 01-.783-.394 1.689 1.689 0 01-.555-1.266 2.613 2.613 0 01.4-1.349 2.245 2.245 0 00.2.468 1.738 1.738 0 01.375-.587c.2 1.114 4.89.741 5.985 1.233.76.34 1.388.563 1.365 1.794a.45.45 0 00.149.2 3.425 3.425 0 011.049 2.487 6.729 6.729 0 01-1.472 3.972 2.535 2.535 0 01-.579.693 1.537 1.537 0 01-1.09.246c-.338-.064-1-.036-1.011-.38 0-.246.522-.686.668-.884" fill="#2b4061"/><path d="M19.349 9.166a.43.43 0 00.643.488 1.482 1.482 0 00.936-1.148c.111-.591-.207-1.182-.748-1.028a.8.8 0 00-.511.778" fill="#ffbe9d"/><path d="M15.031 10.983l1.5.277a2.1 2.1 0 01-1.524.562" fill="#f2a181"/></g></svg>