<svg xmlns="http://www.w3.org/2000/svg" xmlns:xlink="http://www.w3.org/1999/xlink" width="197.232" height="164.698"><defs><linearGradient id="a" x1=".528" y1=".295" x2=".44" y2=".88" gradientUnits="objectBoundingBox"><stop offset="0" stop-color="#c4e0f5"/><stop offset="1" stop-color="#e1e8f6"/></linearGradient><linearGradient id="d" x1=".486" y1=".295" x2=".346" y2=".879" xlink:href="#a"/><linearGradient id="e" x1=".57" y1=".774" x2=".3" y2="-.071" gradientUnits="objectBoundingBox"><stop offset="0" stop-color="#965cf2"/><stop offset="1" stop-color="#ff8adc"/></linearGradient><linearGradient id="c" x1=".468" y1=".493" x2="-.068" y2=".569" gradientUnits="objectBoundingBox"><stop offset="0" stop-color="#ff8a78"/><stop offset="1" stop-color="#ffa799"/></linearGradient><linearGradient id="b" x1="-.149" y1=".728" x2=".476" y2=".494" gradientUnits="objectBoundingBox"><stop offset="0" stop-color="#ffb89e"/><stop offset="1" stop-color="#ffa799"/></linearGradient><linearGradient id="f" x1=".512" y1=".43" x2=".577" y2=".616" xlink:href="#b"/><linearGradient id="g" x1=".505" y1=".464" x2=".611" y2=".799" xlink:href="#c"/><linearGradient id="h" x1=".68" y1=".284" x2=".367" y2=".643" xlink:href="#c"/><linearGradient id="i" x1=".611" y1=".316" x2=".437" y2=".791" xlink:href="#b"/></defs><path d="M195.629 103.582c-3.412-9.514-8.786-12.409-13.9-18.513-6.242-7.453-10.453-12.872-8.832-22.458 2.649-15.665 3.783-54.735-37.69-49.628-14.865 1.831-26.611 13.222-35.157 24.592-7.271 9.676-20.351 10.529-30.879 12.785A155.363 155.363 0 0031.09 63.452C6.442 76.085-.92 94.247.09 117.484c.3 7.021 1.3 18.079 13.156 31.018 16.007 17.464 39.266 19.8 67.261 11.783 6.408-1.836 12.465-4.715 18.769-6.883a88.562 88.562 0 0120.256-4.4c16.078-1.555 32.746 1.257 48.17-3.544a50.82 50.82 0 0021.544-13.361c7.367-7.714 9.983-18.472 6.383-28.515z" fill="#fdefef"/><g fill-rule="evenodd"><path d="M148.395 45.772l-19.651-11.42 4.562-21.653v-.285l.006-.009.006-.008.006-.008.006-.008v-.005l.006-.008.007-.008.006-.007.007-.008.007-.008.006-.006.008-.007h.011l.008-.006.008-.005.008-.005.009-.005h.006a.322.322 0 01.292-.014l19.649 11.42c-.466-.458-3.084 15.678-4.973 22.063z" fill="#e64444"/><path d="M133.303 12.699l14.979 8.969 1.11 19.543c-.177 1.7-.688 3.338-.9 5.024l-19.749-11.883z" fill="#f95959"/><path d="M143.321 29.401a.59.59 0 01.1-.071c.154-.088.292-.05.338.1l4.136 14.565c1.16 4.085.5 1.776.5 1.776l4.561-21.653a.772.772 0 01.333-.488.431.431 0 01.095-.04c.188-.05.3.11.245.353l-4.588 21.8a3.263 3.263 0 01-.278.853.98.98 0 01-.37.417.319.319 0 01-.364.009.974.974 0 01-.266-.509l-4.686-16.476a.721.721 0 01.244-.636z" fill="#c73737"/><path d="M1905.749 389.185c0-.479-.374-.868-.208-1.176.179-.333.919-.537 1.237-.638a2.053 2.053 0 011.633.3l32.351 18.574a5.835 5.835 0 012.645 4.581l-.063 17.955a1.871 1.871 0 01-.755 1.69 3.066 3.066 0 01-1.476.419c-.276-.048-.123-.414-.431-.591l-32.351-18.574a5.832 5.832 0 01-2.645-4.581z" transform="translate(-1794.532 -387.305)" fill="url(#a)"/><path d="M110.56 2.118c0-1.682 1.2-2.363 2.661-1.517l32.351 18.574a5.835 5.835 0 012.645 4.581l-.063 17.955c-.005 1.682-1.2 2.362-2.662 1.517l-32.351-18.574a5.831 5.831 0 01-2.645-4.581z" fill="#fff"/><path d="M110.559 2.118c0-1.682 1.2-2.363 2.662-1.517l32.351 18.574a5.834 5.834 0 012.645 4.581l-.01 2.723-37.657-21.62z" fill="#f95959"/><path d="M117.825 11.327c2.791.638 4.935 3.962 4.788 7.423s-2.528 5.749-5.319 5.111-4.935-3.962-4.789-7.423 2.529-5.749 5.32-5.111z" fill="#fdefef"/><path d="M117.702 14.215a3.9 3.9 0 012.582 4c-.079 1.866-1.363 3.1-2.868 2.755a3.9 3.9 0 01-2.582-4c.079-1.866 1.363-3.1 2.868-2.756zm-.067 1.584c-.8-.183-1.481.472-1.523 1.464a2.071 2.071 0 001.372 2.126c.8.183 1.481-.473 1.523-1.464a2.071 2.071 0 00-1.372-2.125z" fill="#f95959"/><path d="M124.307 17.636c.055-.8.634-1.133 1.293-.752l20.023 10.966a2.473 2.473 0 011.094 2.13l-.1 1.573c-.055.8-.635 1.133-1.293.752l-20.023-10.966a2.471 2.471 0 01-1.095-2.13zm.193 6.359c.062-.47.416-.669.792-.444l11.421 6.476a1.366 1.366 0 01.568 1.258l-.119.929c-.062.47-.417.669-.791.444l-11.422-6.476a1.366 1.366 0 01-.568-1.258z" opacity=".2" fill="#f95959"/><path d="M143.194 29.795l4.744 15.822c.063.17.017 1.315.11 1.415l-19.649-11.418a.779.779 0 01-.289-.524l-4.685-16.474-.878-3.088a.8.8 0 01.169-.559c.816.743 5.173 3.41 5.976 3.883 1.346 1.054 1.392 2.143 3.43 4.3a3.531 3.531 0 001.008.807z" fill="#f95959"/><path d="M143.321 29.401a.583.583 0 01.1-.071c.154-.088.292-.05.338.1l4.64 16.341.368.822a.981.981 0 01-.37.417.319.319 0 01-.364.009.974.974 0 01-.266-.509l-4.686-16.476a.721.721 0 01.24-.633z" fill="#c73737"/><path d="M133.753 23.546l9.911 5.76c-.258-.126-.654.453-.585.729l-10.01-5.817a6.114 6.114 0 01-.834-.54c-1.423-1.124-2.094-2.663-3.024-3.909a3.983 3.983 0 00-.8-.807c-.247-.135-.378-.206-.334-.185l-5.524-3.252a.8.8 0 01.171-.554c.1-.111.268-.248.417-.17l5.534 3.257c-.043-.022.087.05.334.185a3.983 3.983 0 01.8.807c.984 1.318 1.688 2.8 3.283 4.057a5.208 5.208 0 00.661.439z" fill="#c73737"/><path d="M1677.175 504.215a2.087 2.087 0 00-1.775-.2l-1.332.521c-.484 2.5 68.619 117.389 69.237 118.026l1.189-.449a2.325 2.325 0 001.305-1.911l10.041-68.544a.032.032 0 000-.008 4.9 4.9 0 00-.817-3.316 3.864 3.864 0 00-1.342-1.294z" transform="translate(-1590.142 -490.275)" fill="url(#d)"/><path d="M162.227 57.275L85.719 14.447c-1.448-.8-2.825-.032-3.081 1.714L72.596 84.706a4.814 4.814 0 002.153 4.615l76.509 42.828c1.447.8 2.828.034 3.083-1.711l10.042-68.545a4.82 4.82 0 00-2.156-4.618z" fill="#f95959"/><g fill="#f2c3c3"><path d="M152.8 70.542a.4.4 0 00-.615.343.978.978 0 00.429.933c.3.166.575.007.627-.349a.97.97 0 00-.44-.927zm-72.17 9.324l4.134-28.22-.5-.278-4.134 28.217.5.281zm4.139-30.163c-.284-.157-.565 0-.617.354a.978.978 0 00.429.928.408.408 0 00.632-.34.981.981 0 00-.443-.942zm4.07 34.759l3.887-26.533-.5-.279-3.887 26.531.5.281zm3.9-28.475c-.289-.16-.57 0-.622.352a.978.978 0 00.434.93.406.406 0 00.626-.343.981.981 0 00-.438-.939zm4.191 33l5.285-35.15-.508-.282-5.284 35.148.507.284zm5.3-37.088a.408.408 0 00-.627.349.98.98 0 00.44.934.405.405 0 00.616-.349.982.982 0 00-.429-.934zm3.068 41.771l6.4-43.923-.494-.274-6.4 43.922.493.276zm6.414-45.862c-.294-.163-.565 0-.617.36a.961.961 0 00.43.922.4.4 0 00.62-.34.969.969 0 00-.433-.942zm1.806 50.463l6.657-45.694-.5-.278-6.657 45.691.5.281zm6.667-47.635a.408.408 0 00-.623.352.979.979 0 00.435.931.406.406 0 00.626-.342.981.981 0 00-.438-.94zm1.363 52.13l6.341-42.177-.508-.281-6.342 42.175.508.284zm6.345-44.114c-.284-.158-.565-.007-.617.354a.975.975 0 00.43.922.4.4 0 00.625-.337.967.967 0 00-.438-.939zm1.644 47.61l.5.279 5.3-36.209-.5-.278-5.3 36.208zm5.822-37.868a.408.408 0 00-.627.349.982.982 0 00.439.934.406.406 0 00.621-.345.98.98 0 00-.434-.937zm2.753 43.644l5.2-35.476-.5-.275-5.2 35.473.5.279zm5.211-37.408a.4.4 0 00-.615.343.975.975 0 00.428.934.409.409 0 00.628-.349.971.971 0 00-.44-.928zm3.665 33.78l.507.281 5.306-36.214-.508-.281z" opacity=".5"/><path d="M155.97 74.109a.867.867 0 00-.334-.352.436.436 0 00-.481 0 65.31 65.31 0 01-3.417 2.481 35.891 35.891 0 01-2.93 1.812c-4.226 2.307-7.288 2.47-10.3.8-2.949-1.7-5.794-5.281-9.508-10.32-4.155-5.639-7.821-9.458-11.513-11.505a15.738 15.738 0 00-1.639-.791c-4.254-1.752-8.579-1.143-13.759 1.766-.538.287-1.057.6-1.574.9-3.986 2.308-7.72 4.467-11.75 2.233-2.1-1.162-4.272-3.513-6.6-7.649a.872.872 0 00-.331-.349.43.43 0 00-.487.013.841.841 0 00-.056 1.01c2.6 4.627 5.012 7.236 7.319 8.515 4.344 2.408 8.328.094 12.581-2.366.527-.293 1.045-.592 1.572-.885 4.94-2.782 9.038-3.38 13.023-1.743a14.307 14.307 0 011.478.715c3.482 1.931 7 5.6 11.012 11.044 3.854 5.215 6.814 8.939 10.015 10.785l.184.1c3.175 1.761 6.5 1.61 10.991-.834q1.4-.76 3.005-1.849a76.037 76.037 0 003.447-2.515.817.817 0 00.052-1.016z" opacity=".5"/><path d="M155.277 71.448a.85.85 0 00-.333-.347.438.438 0 00-.482.01 68.775 68.775 0 01-3.415 2.529 36.604 36.604 0 01-2.93 1.853c-4.227 2.366-7.289 2.572-10.3.942-2.949-1.658-5.794-5.2-9.508-10.188-4.155-5.581-7.821-9.349-11.513-11.344a15.457 15.457 0 00-1.639-.768c-4.254-1.693-8.58-1.024-13.76 1.958-.538.295-1.057.613-1.574.919-3.986 2.363-7.72 4.575-11.75 2.4-2.1-1.133-4.272-3.453-6.6-7.557a.852.852 0 00-.33-.344.429.429 0 00-.487.02.842.842 0 00-.056 1.011c2.6 4.59 5.012 7.166 7.319 8.412 4.344 2.347 8.328-.022 12.581-2.541.527-.3 1.044-.606 1.572-.907 4.94-2.85 9.039-3.506 13.024-1.925a14.087 14.087 0 011.477.694c3.482 1.882 7 5.5 11.012 10.89 3.854 5.161 6.814 8.843 10.015 10.645.061.034.123.068.184.1 3.174 1.716 6.5 1.519 10.991-.988q1.4-.779 3.005-1.891a81.739 81.739 0 003.448-2.563.819.819 0 00.049-1.02z"/><path d="M154.462 71.11a52.316 52.316 0 01-6.345 4.382c-4.227 2.366-7.289 2.572-10.3.942-2.949-1.658-5.794-5.2-9.508-10.187-3.288-4.417-7.869-10.015-13.152-12.113-5.669-2.256-10.424-.028-15.334 2.877-3.985 2.363-7.72 4.575-11.75 2.4-2.1-1.133-4.272-3.453-6.6-7.557a.854.854 0 00-.331-.344c.661 1.7 3.629 6.744 6.5 8.293 4.344 2.347 8.079.289 12.332-2.23 4.744-2.7 9.645-5.13 15.125-2.956 4.975 1.986 9.764 7.8 12.862 11.957 3.854 5.161 6.627 8.688 9.828 10.49a7.953 7.953 0 007.258.537c2.452-.924 8.162-4.526 9.415-6.491z"/></g><g fill="#fff"><path d="M75.542 83.277c.062-.431.388-.615.73-.41l74.94 42.97a1.237 1.237 0 01.507 1.154l-.2 1.308c-.061.431-.388.615-.73.41l-74.94-42.971a1.235 1.235 0 01-.507-1.153z" opacity=".5"/><path d="M75.725 83.448c.056-.391.353-.558.662-.372l28.436 16.3a1.123 1.123 0 01.46 1.046l-.18 1.187c-.056.391-.353.558-.662.372l-28.436-16.3a1.121 1.121 0 01-.46-1.046zm35.296-20.26l-1.619 11.681 9.9.268z" opacity=".5"/><path d="M112.451 79.536c-3.874-2.372-6.627-8.118-6.15-12.836s4-6.621 7.876-4.251 6.627 8.117 6.151 12.836-4 6.623-7.876 4.252zm-.2 2c4.78 2.926 9.132.576 9.719-5.246s-2.81-12.914-7.59-15.841-9.132-.577-9.72 5.246 2.809 12.914 7.59 15.84z" opacity=".5"/></g><path d="M138.094 79.765l21.974 11.9 1.305-.751 1.149-7.283 1.385-19.078-22.133-11.982c-2-1.081-3.9 0-4.257 2.417l-2.4 18.446a6.563 6.563 0 002.977 6.331z" fill="#f95959" opacity=".5" style="mix-blend-mode:multiply;isolation:isolate"/><path d="M180.84 79.04l-2.74 18.655.329.036.9-.36a2.977 2.977 0 001.644-2.429l2.192-16.839a.05.05 0 000-.01 6.12 6.12 0 00-1.029-4.165 4.775 4.775 0 00-1.69-1.608l-35.963-19.474a2.62 2.62 0 00-2.237-.221l-.791.319c-.4.155-.522.276-.519.3.373 3.476 40.428 22.218 39.904 25.796z" fill="#d0e7ff"/><path d="M179.54 72.689l-35.962-19.474a2.6 2.6 0 00-2.236-.222 2.912 2.912 0 00-1.646 2.431l-2.192 16.839a5.986 5.986 0 002.713 5.78l35.964 19.474c1.823.987 3.564 0 3.886-2.206l2.191-16.84a5.991 5.991 0 00-2.718-5.782z" fill="#fdd"/><path d="M180.209 79.689l-20.484-11.007a.621.621 0 00-.535-.053.7.7 0 00-.394.581l-.137.83a1.431 1.431 0 00.649 1.382l20.484 11.007a.61.61 0 00.929-.527l.137-.831a1.433 1.433 0 00-.649-1.382zm-.742 5.08l-20.485-11.007a.621.621 0 00-.535-.053.7.7 0 00-.393.581l-.137.831a1.43 1.43 0 00.649 1.382l20.485 11.007a.61.61 0 00.929-.527l.137-.831a1.432 1.432 0 00-.65-1.383zm-13.079-1.692l-8.147-4.233a.621.621 0 00-.535-.053.7.7 0 00-.394.582l-.137.83a1.431 1.431 0 00.648 1.382l8.148 4.233a.61.61 0 00.929-.528l.137-.83a1.433 1.433 0 00-.649-1.383z" opacity=".5" fill="#e43737"/><path d="M140.269 63.732c-.632 5.68 2.513 12.57 7.035 15.376s8.855-.938 9.331-5.214-.323-6.042-1.616-8.842c-.787.444-1.574.889-2.359 1.324a8.8 8.8 0 011.049 5.7c-.305 2.749-3.092 5.154-6 3.35s-4.924-6.229-4.518-9.877c-.961-.603-1.945-1.21-2.922-1.817z" fill="#f95959"/><path d="M143.482 57.943c-1.69.938-2.9 2.944-3.213 5.789.978.607 1.961 1.214 2.926 1.817a4.624 4.624 0 012.061-3.721q-.891-1.938-1.774-3.885z" fill="#12a3eb"/><path d="M149.601 58.515c-2.262-1.4-4.434-1.518-6.118-.58q.88 1.951 1.773 3.894a3.8 3.8 0 013.929.369 9.807 9.807 0 013.5 4.244c.786-.435 1.572-.871 2.359-1.315a15.158 15.158 0 00-5.443-6.612z" fill="#3e4869"/><path d="M110.475 55.619c-.372 2.838-2.518 4.077-4.792 2.76l-26.9-15.751.613-4.269 4.936-22.666 25.1 14.7a8.076 8.076 0 013.443 7.526z" fill="#f95959" opacity=".5" style="mix-blend-mode:multiply;isolation:isolate"/><path d="M69.311 12.302c.133-1.01-.142-1.62.359-2.192a5.919 5.919 0 011.748-.99 3.225 3.225 0 012.784.366l33.265 19.525a8.248 8.248 0 013.513 7.681l-1.973 14.54a4.427 4.427 0 01-1.218 2.717 4.733 4.733 0 01-2.1 1.04c-.659.083-.834-.512-1.573-.94L70.852 34.524a8.245 8.245 0 01-3.514-7.681z" fill="#d0e7ff"/><path d="M68.532 12.764c.38-2.9 2.569-4.16 4.89-2.816l33.264 19.525a8.247 8.247 0 013.513 7.681l-1.973 14.54c-.38 2.9-2.572 4.158-4.891 2.816L70.071 34.985a8.243 8.243 0 01-3.514-7.681z" fill="#ffebeb"/><path d="M84.43 25.783c.113-.86.762-1.225 1.449-.814l20.92 11.861a2.5 2.5 0 011.041 2.3l-.219 1.7c-.113.86-.762 1.225-1.45.814L85.252 29.783a2.5 2.5 0 01-1.041-2.3zm-.804 6.258c.067-.508.45-.724.856-.481l12.353 7a1.477 1.477 0 01.615 1.36l-.129 1c-.066.508-.45.723-.856.48l-12.354-7a1.477 1.477 0 01-.615-1.36z" fill="#e43737"/><path d="M75.725 16.818c3.829.876 6.771 5.436 6.569 10.184s-3.469 7.888-7.3 7.012-6.771-5.436-6.57-10.185 3.474-7.891 7.301-7.011z" fill="#6d6afd" opacity=".2"/><path d="M77.97 32.586a4.6 4.6 0 01-2.922.256c-2.86-.654-5.146-3.685-5.6-7.145l5.459-.109z" fill="#f95959"/><path d="M77.558 18.795a9.268 9.268 0 013.8 7.989 6.733 6.733 0 01-2.594 5.359l-3.078-7.027z" fill="#e43737"/><path d="M75.678 17.982a5.524 5.524 0 011.067.364l-1.878 6.341-5.5.11q-.015-.376 0-.755c.177-4.104 3.002-6.817 6.311-6.06z" fill="#474e6e"/><path d="M1599.564 812.769l5.921 3.475a8.51 8.51 0 013.625 7.926l-2.036 15c-.392 2.988-2.654 4.291-5.047 2.906l-10.2-5.986 2.4-14.684z" transform="translate(-1517.517 -763.052)" opacity=".5" fill="url(#e)" style="mix-blend-mode:multiply;isolation:isolate"/><path d="M48.751 33.932c.133-1.01-.142-1.62.359-2.192a5.925 5.925 0 011.748-.991 3.226 3.226 0 012.784.366L86.907 50.64a8.247 8.247 0 013.513 7.681l-1.974 14.54a4.424 4.424 0 01-1.218 2.717 4.731 4.731 0 01-2.1 1.04c-.659.083-.834-.512-1.573-.94L50.291 56.153a8.243 8.243 0 01-3.514-7.681z" fill="#d0e7ff"/><path d="M47.972 34.393c.38-2.9 2.569-4.16 4.89-2.816l33.264 19.529a8.248 8.248 0 013.513 7.681l-1.974 14.54c-.38 2.9-2.572 4.159-4.89 2.816L49.51 56.614a8.243 8.243 0 01-3.514-7.681z" fill="#f95959"/><path d="M57.178 39.253c.049-.375.332-.534.632-.355l27.147 15.595a1.091 1.091 0 01.453 1l-.1.741c-.049.375-.332.534-.631.355L57.532 40.995a1.089 1.089 0 01-.453-1z" fill="#fdd"/><g fill="#fff"><path d="M51.771 36.625l-.591 4.267 3.615.1z" opacity=".5"/><path d="M52.29 42.597a5.335 5.335 0 01-2.247-4.689c.174-1.724 1.462-2.419 2.877-1.553a5.335 5.335 0 012.247 4.689c-.174 1.724-1.462 2.419-2.877 1.553zm-.074.73c1.746 1.069 3.336.21 3.551-1.917a6.582 6.582 0 00-2.773-5.787c-1.746-1.069-3.336-.211-3.551 1.917a6.583 6.583 0 002.777 5.785z" opacity=".5"/></g><g fill="#fff"><path d="M50.223 46.835l-.592 4.267 3.616.1z" opacity=".5"/><path d="M50.746 52.807a5.335 5.335 0 01-2.247-4.69c.174-1.724 1.463-2.419 2.878-1.553a5.334 5.334 0 012.247 4.689c-.174 1.724-1.462 2.419-2.877 1.553zm-.073.73c1.746 1.069 3.336.21 3.551-1.917a6.583 6.583 0 00-2.773-5.787c-1.746-1.068-3.336-.211-3.551 1.917a6.583 6.583 0 002.773 5.788z" opacity=".5"/></g><path d="M56.723 42.752c.039-.3.261-.421.5-.279l21.391 12.288a.859.859 0 01.357.791l-.075.584c-.039.3-.262.421-.5.279L57.005 44.127a.858.858 0 01-.357-.791z" fill="#fff" opacity=".5"/><path d="M55.887 50.168c.049-.375.332-.534.632-.354l27.147 15.594a1.09 1.09 0 01.453 1l-.1.741c-.049.375-.332.534-.632.355L56.24 51.91a1.09 1.09 0 01-.453-1z" fill="#fdd"/><path d="M55.437 53.666c.039-.3.261-.421.5-.279l21.391 12.288a.86.86 0 01.357.791l-.075.584c-.039.3-.262.421-.5.279L55.719 55.041a.858.858 0 01-.357-.791z" fill="#fff" opacity=".5"/><path d="M108.651 69.358c.282-2.249 1.981-3.12 3.8-1.941l38.583 23.376a7 7 0 012.774 6.21l-2.046 16.846c-.282 2.249-1.984 3.119-3.8 1.941L109.38 92.414a7 7 0 01-2.775-6.21z" fill="#fff"/><path d="M133.001 86.931c.2-1.614 1.421-2.239 2.724-1.393l13.345 8.256a5.026 5.026 0 011.991 4.457l-1.468 12.09c-.2 1.614-1.424 2.238-2.725 1.393l-13.344-8.256a5.022 5.022 0 01-1.991-4.457zm-20.697-13.1c.2-1.614 1.422-2.239 2.724-1.393l13.345 8.256a5.026 5.026 0 011.991 4.457l-1.468 12.09c-.2 1.614-1.424 2.238-2.725 1.393l-13.344-8.256a5.023 5.023 0 01-1.991-4.457z" fill="#fdd"/><path d="M1818.492 1333.142a5.326 5.326 0 01-.312.756c-.221.241-.5.387-.626.661-.693 1.472-.844 2.891-.363 10.449l1.774.037.227-2.67c.219-1.082.828-2.666 1.073-3.646.526-2.1.585-3.17.9-4.7l.018-.01c1.944-5.927 3.952-11.754 5.566-17.724l5.537-16.059.176-4.306a4.035 4.035 0 00-.561-1.75c-2.852.84-4.448 1.746-7.511 1.638a13.053 13.053 0 00-2.225 5.857 59.873 59.873 0 01-.946 12.57c-3.419 11.489-1.433 11.29-2.727 18.897z" transform="translate(-1716.298 -1188.21)" fill="url(#c)"/><path d="M98.961 151.478a2.883 2.883 0 01-.6-.088c-.092-.1-.264-.6-.138-.7.223-.146.678.643.738.788z" fill="#1f202b"/><path d="M99.948 148.456a3.447 3.447 0 01-.3 2.028c-.742 2.45-1.177 2.588-.863 3.7a4.956 4.956 0 001.085 1.945 6.274 6.274 0 001.243 1.368c.929.642 1.757.942 1.555-.346a6.175 6.175 0 00-.3-1.2c-.658-1.53-1.425-2.2-1.01-4.109.309-1.417.8-2.351.162-3.306z" fill="#161a40"/><path d="M100.094 146.928a7.987 7.987 0 01-1.872 3.764c.148-.04.526.347.734.775 1.533-1.762 2.28-2.62 2.751-1.861a24.18 24.18 0 01-.475 2.689 2.683 2.683 0 00.052 1.4c.6 1.446 1.706 3.556 1.285 4.247a2.5 2.5 0 00.313-1.38c0-1-.172-2.349-.194-3.179-.029-1.122.4-2.1.464-3.625a12.3 12.3 0 000-1.28c-.064-1.081-.183-2.515-.943-2.92a1.957 1.957 0 00-1.339.145 1.6 1.6 0 00-.776 1.225z" fill="#161f69"/><path d="M1901.52 1357.865c-.137 1.14-1.179 2.231-1.306 2.974-.306 1.793.992.86 2.463 3.165.588 0 1.885 2.116 3.64 2.228a.943.943 0 00.326-1.644c-.355-.207-.672-.053-.964-.307-.571-.505-1.238-4.43-1.2-5.961 1.591-8.442 2.6-16.491 4.182-24.75a32.393 32.393 0 00.681-9.775 13.219 13.219 0 00-.5-4.306 10.31 10.31 0 00-.835-1.751c-2.721.84-4.75 1.665-7.831 1.557a8.833 8.833 0 00-1.061 5.128c.5 3.764 2.383 6.505 2.8 12.961-2.031 7.1.078 12.768-.4 20.438a.356.356 0 01.005.043z" transform="translate(-1788.846 -1209.016)" fill="url(#b)"/><path d="M118.469 132.232c.417-2.551.855-5.1 1.349-7.677a32.378 32.378 0 00.681-9.775 13.228 13.228 0 00-.5-4.306 8.99 8.99 0 01-.533-1.329c-.861-1.9-.98-7.484-.973-7.534.4-2.958 2.013-4 1.147-6.529a14.55 14.55 0 00-4.134-3.244 21.465 21.465 0 00-6.817-2.406c-3.185-.36-3.193 4.89-2.084 7.363 2.208 4.928 2.37 7.449 1.24 11.194a12.643 12.643 0 00-1.98 5.476 59.857 59.857 0 01-.946 12.57 80.04 80.04 0 00-1.231 4.577c2.325 4.237 9.954 3.86 14.781 1.62z" fill="#ed4141"/><path d="M112.018 150.448c1.425.175 2.755 3.654 3.857 5.166.535.734 1.669-.023 1.209-.22a11.913 11.913 0 011.733.017c.894.144.58 1.039-.027 1.459-1.353.934-2.553 1.46-3.779.842a5.842 5.842 0 01-.752-.5 3.742 3.742 0 01-.5-.406 13.757 13.757 0 01-.912-1.893c-.12-.216-.218-.262-.3-.2a24.255 24.255 0 00.079 3.962c-.04.179-.65.321-.772.185l-1.132-5.555a1.982 1.982 0 01.148-1.423 12.333 12.333 0 011.148-1.434z" fill="#161f69"/><path d="M115.735 157.953a2.555 2.555 0 01-.726-.242 5.816 5.816 0 01-.752-.5 3.7 3.7 0 01-.5-.406c-.43-.515-.64-1.472-1.117-2.128.159-.1.576-.088.993.6a6.606 6.606 0 001.885 2.56 1.274 1.274 0 00.217.116z" fill="#161a40"/><path d="M105.687 98.334l5.433 1.24c1.091.489.265 2.8-.813 3.073l-7.584-.981c-1.933-.41-2.357-1.684-1.937-2.677l.029-.061a81.586 81.586 0 014.551-6.922 8.084 8.084 0 011.92-1.923 2.1 2.1 0 012.093.058 1.58 1.58 0 01.738 2c-.558 1.339-2.669 3.952-4.43 6.193z" fill="#ed4141"/><path d="M2062.453 1180.052c1.3-.793 3.056-2.3 4.259-2.46.76-.386 1.886-1.02 2.607-1.4.527-.278.751.632.3.932s-1.639 1.026-1.643 1.028l-.051.021a2.525 2.525 0 01.261 1.63c-.115.629-1.5 1.431-2.376 2.013-.773.516-1.7.128-2.222.537-.888-.411-1.031-1.447-1.135-2.301z" transform="translate(-1933.147 -1083.963)" fill="url(#f)"/><path d="M123.276 99.722a48.155 48.155 0 014.713-3.084c.234-.146.588-.141.772-.252.229-.137.414-.245.544-.315a4.627 4.627 0 011.453 2.178q-.291.252-.582.529c-.15.142-.307.632-.457.782a35.015 35.015 0 01-4.314 4.162 15.555 15.555 0 01-1.762 1.278 1.857 1.857 0 01-2.233-.733c-.418-.377-.793-.79-1.03-1.012a45.541 45.541 0 01-5.219-5.258c-1.076-1.443-.9-2.234-.475-2.986.984-1.749 2.471-2.87 4.113-1.285a25.672 25.672 0 011.975 2.885c.748.975 1.692 2.048 2.502 3.111z" fill="#ed4141"/><path d="M108.689 89.432a2.048 2.048 0 00-2.119 1.053 4.16 4.16 0 00-.052.09l-.023.042-.038.074-.012.023-.047.1-.016.036-.039.09-.007.018-.044.112-.011.031-.032.09-.01.03-.037.115-.008.029-.028.1-.008.03a22.82 22.82 0 00-.033.127l-.029.124-.007.032-.023.117v.015a4.79 4.79 0 00-.022.127l-.007.041-.018.116v.01l-.017.129-.005.047-.011.1v.035l-.012.137v.023l-.008.108v.049l-.006.126v.489q0 .151.009.3v.022l.007.126v.032l.01.146v.009l.011.126v.038l.014.133v.035l.015.124v.016l.019.143v.026l.019.122v.029l.022.133v.024l.022.12.005.026q.026.136.056.268l.008.036.027.115v.017l.034.135v.012c.023.088.047.174.073.259l.01.032.03.094.011.034.037.11.01.03.034.1.008.022.044.115v.009l.04.1.012.029.046.105c2.208 4.928 2.37 7.449 1.24 11.194a12.646 12.646 0 00-1.98 5.477 59.858 59.858 0 01-.946 12.57 80.04 80.04 0 00-1.231 4.577c1.07 1.949 3.261 2.921 5.786 3.185 10.407-11.433-4.278-15.536 1.305-26.021.636-1.2 4.544-2.716 5.521-4.193 2.094-2.457 2.923-4.882-.239-8.792-.525-.649-.916-.988-1.619-1.968-1.149.271-3.289-.109-3.545-.578-.089-.164.364-1.6.291-1.775-1.958-.874-1.33-.913-2.487-1.043z" fill="#ce2222" opacity=".3"/><path d="M1884.973 1112.166c-.247 1.047 3.573 2.176 4.881 1.607l.027-.253c.338-1.561.669-2.887.9-3.983a3.769 3.769 0 002.234.126c-4.026-3.216-8.735-5.593-9.34-3.969a11.616 11.616 0 001.945 2.778 2.416 2.416 0 01.27 1.053 11.361 11.361 0 01-.917 2.641z" transform="translate(-1775.262 -1021.286)" fill="url(#g)"/><path d="M117.734 88.396c-.347.226-2.812-.593-3.011-.583-1.917.095-3.981-.061-4.362-.626a11.619 11.619 0 01-1.945-2.778 4.835 4.835 0 011.205-5.475c2.988-2.566 7.676-.686 8.347 2.221.275 1.192-.066 1.291-.01 2.089a12.343 12.343 0 01.135 3.244c-.05.887-.129 1.758-.359 1.908z" fill="#ffa698"/><path d="M110.262 89.478c.105.952 2.784 1.623 4.409 1.244.174-.04.282-.073.345-.184a3.492 3.492 0 01.963 1.538c-1.4 1.354-5.843.56-6.382-1.026a1.193 1.193 0 01.665-1.572z" fill="#c73737"/><path d="M102.866 86.323c-2.554 2.136-3.993 5.984-2.831 8.167 1.053 1.978 3.623 3.142 2.832 4.394-.653 1.035-2.191 2.073-.362 3.744.942.86 3.243 3.168 7.94 1.973 4.578-1.166 9.382-5.12 5.525-9.444-4.059-4.551-1.685-5.557.644-9.135 1.231-1.892 2.332-5.632 1.277-7.022-1.809-2.386-3.01-.667-4.75-1.51-3.32-1.608-6.043-.458-7.6 2.055-1.404 2.25-.645 5.079-2.675 6.778z" fill="#2b4061"/><path d="M27.113 151.998c.478-.01 2.09-1.525 3.616-.761 1.833.918 5.314.105 7.071.527.313.075.925-.155 1.045.06.379.673.745 1.68-.186 2.338a15.925 15.925 0 01-3.113 1.467 26.3 26.3 0 01-3.938 1.115 5.1 5.1 0 00-2.374.661 3.457 3.457 0 01-1.811.436 3.052 3.052 0 01-2.309-1.612 6.891 6.891 0 01.018-2.556 12.91 12.91 0 01.816-2.231z" fill="#fff"/><path d="M30.862 148.739c-.58 1.392-.4 3.546-1.776 4.294a2.043 2.043 0 01-2.984-.923c-.35-.8.115-2.157.012-3.9z" fill="#ffa495"/><path d="M31.243 150.896c1.053.306 3.961.1 5.8.25.79.064 1.5.058 1.868.775.34.66.162 1.226-.608 1.77a13.026 13.026 0 01-2.808 1.378 26.322 26.322 0 01-3.938 1.115 5.1 5.1 0 00-2.374.661 3.455 3.455 0 01-1.811.436 3.189 3.189 0 01-2.309-1.713 6.351 6.351 0 01.018-2.455 4.57 4.57 0 01.135-.52c.145-1.383.6-1.943 1.032-1.706a2.66 2.66 0 011.036 1.387 1.354 1.354 0 00.8.764 1.582 1.582 0 001.765-.776 4.989 4.989 0 00.484-1.4v-.141c.138-1.209.727-1.1.637-.849a1.041 1.041 0 00.273 1.024z" fill="#193161"/><path d="M38.54 151.717c-.014.468.7.512.5 1.333.344-.337-.136-1.307-.349-1.454-.089-.06-.163-.085-.151.121z" fill="#fff"/><path d="M39.092 147.203c.445-.174 1.438-2.151 3.134-1.958a8.625 8.625 0 002.9-.418c1.781-.506 4.262-2.1 4.686-1.838a1.666 1.666 0 01.348 2.542 13.044 13.044 0 01-2.163 2.26 22.864 22.864 0 01-3.053 2.322c-.979.543-1.3.5-2 1.438a3.272 3.272 0 01-1.55.981 3.686 3.686 0 01-3.029-1.137 6.277 6.277 0 01-.549-3.775z" fill="#fff"/><path d="M41.444 142.539c-.027 1.508.931 3.446-.073 4.647a2.044 2.044 0 01-3.115.239c-.618-.612-.686-2.048-1.425-3.636z" fill="#ffa495"/><path d="M44.67 144.378c.1-.026.2-.054.3-.083 1.781-.506 4.16-1.733 4.583-1.472a1.323 1.323 0 01.45 2.176 13.02 13.02 0 01-2.163 2.26 22.894 22.894 0 01-3.053 2.322c-.979.543-1.3.5-2 1.438a3.271 3.271 0 01-1.55.981 3.783 3.783 0 01-3.073-1.143 9.078 9.078 0 01-.625-2.616c-.148-1.341-.056-2.023.528-2.006a3.237 3.237 0 011.981.883c.966.6 1.612-.176 1.77-1.138a5.643 5.643 0 00-.088-1.272 1.89 1.89 0 00-.05-.132c-.316-1.175.27-1.293.28-1.023a1.008 1.008 0 00.9 1.027 7.874 7.874 0 001.81-.202z" fill="#193161"/><path d="M49.449 142.971c.189.428.854.159 1.021.99.166-.453-.686-1.121-.941-1.162-.105-.012-.182-.012-.08.172z" fill="#fff"/><path d="M21.218 89.859c3.542 4.109 3.6 4.429 10.513 8.493l1.316-2.591c-2.322-4.754-3.016-5.387-6.031-9.089a35.1 35.1 0 007.091-6.669c4.511-6.022 2.006-10.207-1.892-9.359-3.4.74-8.7 9.54-11.589 14.5-1.198 2.071-1.492 2.297.592 4.715z" fill="#3e4869"/><path d="M28.183 85.816a34.881 34.881 0 005.924-5.813c4.512-6.022 1.876-10.086-2.022-9.238-2.034.622-5.662 4.925-3.902 15.051z" fill="#0960ac" opacity=".35" style="mix-blend-mode:multiply;isolation:isolate"/><path d="M40.416 101.809c.39 4.37 2.58 18.325 1.971 22.157-.916 5.761-.655 12.722-.644 18.837-.155 2.57-3.687 3.912-4.716 2.28-.826-5.464-2-10.251-2.478-13.288-.535-3.4-.358-7.531.5-9.766a116.25 116.25 0 00-3.409-13.1c-.5-1.575-3.344-6.663-.4-11.72z" fill="#f95959"/><path d="M41.802 141.163c0 .453-.014 1.144-.013 1.589-.155 2.57-3.732 3.963-4.76 2.331-.061-.4-.149-.8-.213-1.2 1.383 1.493 4.093-.443 4.986-2.72z" fill="#3e4869"/><path d="M42.484 121.366c-1.152 5.777-4.41 13.5-6.188 19.3-.926-4.978-3.243-13.454-1.239-18.642-.2-1.39-.828-4.031-1.588-6.854 1.542-2.923.068-5.256.8-9.372 4.082-.711-2.079-5.693 6.559-.446.769 6.205 1.494 10.104 1.656 16.014z" fill="#1e2353" opacity=".3" style="mix-blend-mode:multiply;isolation:isolate"/><path d="M40.136 126.847c-2.354 5.33-6.7 15.787-9.009 22.329-1.2 1.737-5.458 1.557-5.449-.064.941-5.469 2.047-13.905 4.01-18.7a43.051 43.051 0 013.617-6.049c.621-2.414 1.4-8.934 2-12.462-.539-2.92-2.894-7.8 1.63-12.043 1.826 1.3 7.469 2.11 10.028.665.415 11.528-2.416 16.337-6.827 26.324z" fill="#f95959"/><path d="M31.609 148.035c-.1.286-.308.864-.4 1.137-1.231 1.788-5.619 1.6-5.61-.066.047-.27.093-.547.141-.831 1.038 1.067 4.201 1.08 5.869-.24zm-1.452-61.9c.38 3.426-.65 6.794.4 9.922.047.323.077 1.591.132 1.936.691 4.051 9.26 8.151 16.407 4.263.04-.5-.006-1.027.033-1.958a11.063 11.063 0 01.241-2.33c-.01-2.2-.7-3.332-.368-5.785.67-4.991 3.435-9.788 1.905-13.715a4.179 4.179 0 00-1.555-1.775c-1.689-1.357-10.424-5.8-13.072-6.119-7.691-.996-4.536 11.848-4.123 15.561z" fill="#3e4869"/><path d="M45.771 98.074c.3-1.306 2.115-9.83 2.5-11.363.773-3.071 1.4-6.265.633-8.243-.919-2.7-5.179-.237-5.791 3.4-.731 4.351-5.914 16.58 2.658 16.206z" fill="#17acc8" opacity=".35" style="mix-blend-mode:multiply;isolation:isolate"/><path d="M45.076 70.539c-.486.241-2.954-.109-2.881.112.036 1.1.364 1.774.471 3.286-2.713-.379-6.273-.771-6.414-2.852.011-.167.021-.333.028-.5 0-.019.006-.038.009-.057h-.007a3.692 3.692 0 00-.218-1.783c-.574-.929-1.755-1.964-2.173-3.372-.668-2.251-.425-4.751 1.673-6.418 3.833-3.043 8.733-.878 9.975 3.573.243.869-.443 1.34-.419 2.083 0 .145.2.3.353.62.22.45.199 5.013-.397 5.308z" fill="#e7a376"/><path d="M1254.558 892.7c-.486.241-2.928-.084-2.856.137.036 1.1.364 1.774.471 3.286-1.576.387-5.825-.179-6.461-2.571a14.759 14.759 0 00-.142-2.619c-.574-.929-1.755-1.964-2.173-3.372-.668-2.251-.425-4.751 1.673-6.418 3.833-3.043 8.733-.878 9.975 3.573.243.869-.443 1.34-.419 2.083 0 .145.2.3.353.62.221.447.175 4.981-.421 5.281z" transform="translate(-1209.507 -822.185)" fill="url(#h)"/><path d="M1254.483 892.724a3.944 3.944 0 01-2.117-.257 3.7 3.7 0 01-.94-.652c-.329-.133-1.058-1.169.072-2.819 1.1-1.609-5.575 2.508-5.928 1.937-.574-.929-1.755-1.964-2.173-3.372-.668-2.251-.425-4.751 1.673-6.418 3.833-3.043 8.733-.878 9.975 3.573.243.869-.443 1.34-.419 2.083 0 .145.2.3.353.62.221.447.089 4.991-.496 5.305z" transform="translate(-1209.507 -822.185)" fill="url(#i)"/><path d="M42.229 66.86c-1.373-1.28-2.7 2.792-.489 2.749a1.9 1.9 0 01.489-2.749z" fill="#ffa698"/><path d="M42.224 67.453c.206-.569.032-.776-.218-.715a1.618 1.618 0 00-.869 1.052c-.328.951.142 2.154 1.061 1.684-.79.046-.717-.907-.479-1.495.159-.397.405-.68.505-.526z" fill="#ffb49c"/><path d="M41.863 67.711c.221.412.3.656.226.8-.05.1-.2.21-.451-.031a1.419 1.419 0 01.225-.769z" fill="#ffa698"/><path d="M43.589 61.491l.053-.028a2.349 2.349 0 00.775-3.71c-1.505-1.335-5.589-1.2-8.178.137-2.636 1.357-3.282 4.735-2.494 7.389.524 1.766 1.8 2.689 2.438 4.027a1.6 1.6 0 001.623.592c1.828-.378 2.25-2.306 3.348-3.155.6-.465 1.222-.59 1.448.681.044.559.052 1.125.093 1.639.064.808-.137.958.547 1.235a6.134 6.134 0 002.153.441c.171-.067.16-1.075.128-1.828-.069-.006-.072.259-.107.253-.068-.01-.149-.027-.246-.036a2.96 2.96 0 01.109-.915 1.445 1.445 0 01.3-.686 1.161 1.161 0 00.036-.592 1.862 1.862 0 00-.781 1.1 5.547 5.547 0 00-.2 1 1.9 1.9 0 01-.936-.307 3.559 3.559 0 01-.593-1.875 3.505 3.505 0 01.832-2.9c.221-.314.231-.957-.314-2.39q-.02-.032-.034-.072z" fill="#2b4061"/><path d="M44.611 60.602c-.569.713-3.011-.935-6.43-.306.732-2.258 1.156-2.738 2.182-3.4 1.338-.861 3.592-.51 4.3.677a2.842 2.842 0 01-.052 3.029z" fill="#2b4061"/><path d="M36.161 70.711c-.741.228-1.487.962-1.351 1.45.738 3.014 6.339 3.585 9.773 2.859.041-.008-1.336-1.815-1.994-2.028-2.162.213-5.761-.501-6.428-2.281z" fill="#f7d1d1"/><path d="M46.326 113.972c-.4.6-.927.489-1.032 1.152a9.753 9.753 0 00.917.464c.161.032.518-.271.539-.428.005-.037-.078-.53-.078-.53z" fill="#ffa698"/><path d="M19.294 106.261l-3.252 21.874-.319.037-.74-.326a1.527 1.527 0 01-.107-.054h-.01a1.964 1.964 0 01-.857-2.25l3.253-20.184a.065.065 0 010-.009 7.737 7.737 0 012.142-3.9 7.057 7.057 0 012.04-1.524l50.731-24.058a2.685 2.685 0 012.161-.234l.652.289c.069.029.127.057.175.083.282.128.353.228.345.25-1.332 3.245-55.696 26.67-56.214 30.006z" fill="#dae0e9"/><path d="M22.308 100.309L73.037 76.25a2.639 2.639 0 012.16-.234c.691.3 1.037 1.1.858 2.252l-3.253 20.184a8.2 8.2 0 01-4.178 5.434l-50.73 24.059c-1.99.944-3.343.04-3.023-2.016l3.254-20.184a8.213 8.213 0 014.183-5.436z" fill="#f2c3c3"/><path d="M70.513 92.599c.214-2.845-.657-3.827-2.172-3.462a3.753 3.753 0 00-.744.271c-1.586.759-3.514 2.79-4.581 6.216-.677 2.169-1.588 4.151-3.675 5.15-5.445 2.46.05-12.661-5.144-10.171-4.473 2.144-4.124 10.244-6.916 15.312a6.691 6.691 0 01-2.881 2.929c-3.134 1.411-2.288-3.239-2.164-5.2.572-9.065-.363-9.585-2.289-8.662-2.017.982-2.973 1.657-4.987 11.095-.822 3.859-1.814 7.31-4.945 8.88-3.475 1.665-2.863-1.884-3.787-3.638a1.819 1.819 0 00-2.627-.753 8.147 8.147 0 00-3.422 4.25 50.047 50.047 0 00-2.853 10.836l52.252-24.86c.291-2.775.75-5.733.935-8.193z" fill="#f95959"/><path d="M49.959 108.635a5.792 5.792 0 00.94 1.634c.3.507.492.784.451 1.21a4.427 4.427 0 01-.68 2.444c-.666.624-3.3 1.439-4.458 1.693a3.415 3.415 0 00.07-1.838 15.8 15.8 0 01-.689-1.5c-.139-.63.251-1.36.274-2.434z" fill="#ffa698"/><path d="M47.248 115.347c-.4.115-.76.207-1.036.269a3.416 3.416 0 00.07-1.838 15.776 15.776 0 01-.689-1.5c-.139-.63.251-1.36.274-2.434l.885-.262-.022.162a6.591 6.591 0 00.064 1.845c.336 1.015.648 1.133.715 1.749a5.062 5.062 0 01-.261 2.009z" fill="#fa9"/><path d="M51.098 82.844c-.841 3.886-2.4 9.569-2.912 13.4l1.765 11.9c-.251 2.037-3.584 2.589-4.382 1.746l-3.365-12.907c.153-3.017 1.107-11.506 1.435-14.382.222-1.947 1.277-4.185 2.733-5.014 3.023-1.715 5.455 1.889 4.726 5.257z" fill="#3e4869"/></g></svg>